<?xml version="1.0" encoding="UTF-8"?>
<svg width="181px" height="58px" viewBox="0 0 181 58" version="1.1" xmlns="http://www.w3.org/2000/svg" xmlns:xlink="http://www.w3.org/1999/xlink">
    <title>casinofair-horizontal-dark-bg-01 copy</title>
    <defs>
        <linearGradient x1="84.0721981%" y1="-106.541233%" x2="13.3043593%" y2="218.906167%" id="linearGradient-1">
            <stop stop-color="#AA13EB" offset="24.79%"></stop>
            <stop stop-color="#FFFFFF" offset="100%"></stop>
        </linearGradient>
        <linearGradient x1="86.4338745%" y1="-86.4570536%" x2="7.29965478%" y2="243.349018%" id="linearGradient-2">
            <stop stop-color="#AA13EB" offset="24.79%"></stop>
            <stop stop-color="#FFFFFF" offset="100%"></stop>
        </linearGradient>
        <linearGradient x1="76.3303015%" y1="-64.1989464%" x2="3.5316058%" y2="260.105531%" id="linearGradient-3">
            <stop stop-color="#AA13EB" offset="24.79%"></stop>
            <stop stop-color="#FFFFFF" offset="100%"></stop>
        </linearGradient>
        <linearGradient x1="61.1532655%" y1="-52.4797285%" x2="24.9490645%" y2="281.803348%" id="linearGradient-4">
            <stop stop-color="#AA13EB" offset="24.79%"></stop>
            <stop stop-color="#FFFFFF" offset="100%"></stop>
        </linearGradient>
        <linearGradient x1="70.7565412%" y1="-29.6541097%" x2="-9.36362007%" y2="279.246639%" id="linearGradient-5">
            <stop stop-color="#AA13EB" offset="24.79%"></stop>
            <stop stop-color="#FFFFFF" offset="100%"></stop>
        </linearGradient>
        <linearGradient x1="63.9658701%" y1="-12.1557319%" x2="-9.8462287%" y2="313.57866%" id="linearGradient-6">
            <stop stop-color="#AA13EB" offset="24.79%"></stop>
            <stop stop-color="#FFFFFF" offset="100%"></stop>
        </linearGradient>
        <linearGradient x1="57.1617443%" y1="5.84606335%" x2="-13.6151379%" y2="340.12914%" id="linearGradient-7">
            <stop stop-color="#00E6B8" offset="0%"></stop>
            <stop stop-color="#4F83F0" offset="100%"></stop>
        </linearGradient>
        <linearGradient x1="59.2445822%" y1="26.6598214%" x2="-19.8897261%" y2="356.465893%" id="linearGradient-8">
            <stop stop-color="#00E6B8" offset="0%"></stop>
            <stop stop-color="#4F83F0" offset="100%"></stop>
        </linearGradient>
        <linearGradient x1="50.9925027%" y1="41.3238914%" x2="14.7882612%" y2="375.606968%" id="linearGradient-9">
            <stop stop-color="#00E6B8" offset="0%"></stop>
            <stop stop-color="#4F83F0" offset="100%"></stop>
        </linearGradient>
        <linearGradient x1="51.0173126%" y1="57.5015385%" x2="-30.0592319%" y2="391.784525%" id="linearGradient-10">
            <stop stop-color="#00E6B8" offset="0%"></stop>
            <stop stop-color="#4F83F0" offset="100%"></stop>
        </linearGradient>
    </defs>
    <g id="Page-1" stroke="none" stroke-width="1" fill="none" fill-rule="evenodd">
        <g id="Desktop-CasinoFair" transform="translate(-58.000000, 1.000000)" fill-rule="nonzero">
            <g id="Header" transform="translate(0.000000, -1.000000)">
                <g id="casinofair-horizontal-dark-bg-01-copy" transform="translate(58.000000, 0.000000)">
                    <g id="Layer_1_copy" transform="translate(15.000000, 15.000000)">
                        <g id="Group" transform="translate(0.000000, 0.000000)">
                            <g transform="translate(1.633046, 4.406022)" id="Shape">
                                <path d="M11.8197501,22.5021855 C11.6981887,22.5021855 11.5901341,22.462846 11.4955863,22.3972802 L0.325443532,14.4638174 C0.190375299,14.3720253 0.10933436,14.2146673 0.0958275367,14.0573094 C0.0958275367,13.8868383 0.163361653,13.7425935 0.284923062,13.6376882 L9.71268568,5.94026226 C9.7261925,5.32394366 9.73969932,2.47838757 9.71268568,1.03593978 C9.71268568,1.00971345 9.71268568,0.970373968 9.71268568,0.931034483 C9.69917885,0.511413307 9.68567203,0.209810588 9.96931532,0.118018456 L9.98282214,0.118018456 L10.0098358,0.118018456 L10.0368494,0.118018456 C10.0503563,0.118018456 10.0638631,0.118018456 10.0773699,0.118018456 C10.1584108,0.118018456 10.225945,0.144244779 10.2799723,0.196697426 C10.3880268,0.288489558 10.455561,0.340942205 10.5095882,1.58669257 C10.5366019,2.05876639 10.5636155,2.62263235 10.5771224,3.1864983 L10.5771224,3.25206411 C10.6176428,4.26177756 10.6851769,5.52064109 10.7121906,5.9271491 L21.3960878,12.3919378 C21.531156,12.4706168 21.6257038,12.6148616 21.6527174,12.7853327 C21.6662242,12.9426906 21.6121969,13.1000486 21.5041424,13.218067 L12.1844343,22.3841671 C12.1169002,22.4497329 12.0358593,22.4890724 11.9548183,22.5152987 C11.9278047,22.5284119 11.8872842,22.5284119 11.8602706,22.5284119 C11.8602706,22.5021855 11.8332569,22.5021855 11.8197501,22.5021855 Z M11.2659703,20.9286061 L11.5090932,14.5293832 C11.5090932,14.3326858 11.5631205,13.8868383 11.900791,13.781933 C11.9278047,13.7688198 11.9683252,13.7688198 11.9953388,13.7688198 C12.0628729,13.7688198 12.130407,13.7950461 12.1844343,13.8343856 C12.2924889,13.9130646 12.4005435,13.9917436 12.360023,15.2506071 L12.3735299,20.679456 L20.4911306,12.8508985 L10.2529586,6.67459932 L1.40598939,13.9917436 L11.2659703,20.9286061 Z" fill="#FFFFFF"></path>
                                <path d="M10.0773699,0.196697426 C10.1313972,0.196697426 10.1719177,0.209810588 10.2124381,0.249150073 C10.2799723,0.314715881 10.3610132,0.367168528 10.4150405,1.57357941 L10.4150405,1.58669257 C10.4420541,2.04565323 10.4690678,2.60951918 10.4825746,3.17338514 C10.5366019,4.26177756 10.5906292,5.61243322 10.6176428,5.95337542 L21.3555673,12.4443905 C21.4771287,12.5099563 21.5446628,12.6279747 21.5581697,12.7591064 C21.5716765,12.890238 21.531156,13.0213696 21.4366082,13.1131617 L12.1169002,22.2792618 C12.0628729,22.3317144 11.9953388,22.3710539 11.9278047,22.3841671 C11.900791,22.3972802 11.8737774,22.3972802 11.8467637,22.3972802 C11.8332569,22.3972802 11.8197501,22.3972802 11.8062433,22.3972802 C11.7116955,22.3972802 11.6171478,22.3710539 11.5496136,22.3186013 L0.392977648,14.3851384 C0.284923062,14.3064594 0.217388946,14.188441 0.217388946,14.0573094 C0.217388946,13.9261778 0.271416239,13.7950461 0.379470825,13.7163672 L9.83424709,5.99271491 C9.84775391,5.4813016 9.86126073,2.53084021 9.84775391,1.03593978 C9.84775391,1.00971345 9.84775391,0.970373968 9.84775391,0.917921321 C9.83424709,0.524526469 9.82074026,0.262263235 10.0368494,0.196697426 L10.0368494,0.196697426 L10.0503563,0.196697426 L10.0503563,0.196697426 L10.0503563,0.196697426 L10.0638631,0.196697426 C10.0638631,0.196697426 10.0773699,0.196697426 10.0773699,0.196697426 M11.3605181,21.1121904 L11.6036409,14.5293832 C11.6036409,14.3589121 11.6441614,13.9524041 11.9278047,13.8737251 C11.9548183,13.8737251 11.9683252,13.8606119 11.9953388,13.8606119 C12.0493661,13.8606119 12.0898866,13.8737251 12.130407,13.8999514 C12.211448,13.9524041 12.3059957,14.0310831 12.2654753,15.2374939 L12.2789821,20.915493 L20.6532125,12.8377853 L10.2394518,6.56969403 L1.24390751,14.0179699 L11.3605181,21.1121904 M10.0773699,0 C10.0638631,0 10.0503563,0 10.0368494,0 L10.0098358,0 L9.99632896,0 L9.96931532,0 L9.9558085,0 C9.59112427,0.104905294 9.60463109,0.485186984 9.61813791,0.917921321 C9.61813791,0.957260806 9.61813791,0.996600291 9.61813791,1.02282661 C9.63164474,2.43904808 9.63164474,5.17969888 9.61813791,5.87469645 L0.230895769,13.5590092 C0.0823207135,13.6901408 -0.0122270491,13.8606119 0.00127977411,14.0573094 C0.00127977411,14.2540068 0.10933436,14.4244779 0.271416239,14.5424964 L11.4415591,22.4759592 C11.5496136,22.5546382 11.6846819,22.5939777 11.8197501,22.5939777 C11.8467637,22.5939777 11.8602706,22.5939777 11.8872842,22.5939777 C11.9278047,22.5939777 11.9683252,22.5808645 12.0088456,22.5677513 C12.1169002,22.541525 12.211448,22.4759592 12.2789821,22.4103934 L21.5986901,13.2442933 C21.7337584,13.1131617 21.8012925,12.9164643 21.7742788,12.73288 C21.7472652,12.5361826 21.6392106,12.3788247 21.4771287,12.2739194 L10.833752,5.83535697 C10.8067384,5.37639631 10.7527111,4.15687227 10.6986838,3.16027198 L10.6986838,3.14715881 C10.6716701,2.58329286 10.6446565,2.01942691 10.6311497,1.56046625 L10.6311497,1.54735308 C10.5771224,0.314715881 10.4960814,0.196697426 10.3610132,0.0786789704 C10.2799723,0.0262263235 10.1854245,0 10.0773699,0 L10.0773699,0 Z M1.56807127,13.9917436 L10.2664654,6.80573094 L20.3425556,12.8771248 L12.4950913,20.4434191 L12.4815844,15.2374939 C12.5221049,14.0048567 12.4275571,13.8606119 12.2654753,13.7425935 C12.1844343,13.6901408 12.1033934,13.6508014 12.0088456,13.6508014 C11.9683252,13.6508014 11.9278047,13.6508014 11.8872842,13.6639145 C11.6036409,13.7425935 11.4280522,14.0573094 11.4145454,14.5031569 L11.1849294,20.7187955 L1.56807127,13.9917436 L1.56807127,13.9917436 Z" fill="#AA13EB"></path>
                                <g opacity="0.2" transform="translate(0.203882, 0.196697)" fill="#AA13EB">
                                    <path d="M9.87348778,0.0655658086 C9.91400825,0.0655658086 9.9410219,0.0786789704 9.96803554,0.104905294 C10.0220628,0.144244779 10.089597,0.209810588 10.1436242,1.38999514 L10.1436242,1.40310831 C10.1706379,1.86206897 10.1976515,2.42593492 10.2111584,3.00291404 C10.2651857,4.09130646 10.3192129,5.42884896 10.3462266,5.78290432 L10.3462266,5.82224381 L10.3732402,5.83535697 L21.1111647,12.326372 C21.2057125,12.3788247 21.2732466,12.48373 21.2867534,12.5886353 C21.3002602,12.7066537 21.2597398,12.811559 21.1786988,12.890238 L11.8589908,22.056338 C11.8184703,22.0956775 11.764443,22.135017 11.6969089,22.1481302 C11.6698953,22.1612433 11.6563884,22.1612433 11.6293748,22.1612433 C11.615868,22.1612433 11.6023612,22.1612433 11.5888543,22.1612433 C11.5078134,22.1612433 11.4267725,22.135017 11.3727452,22.0956775 L0.202602348,14.1622147 C0.108054586,14.0966489 0.0540272929,13.9917436 0.0540272929,13.8737251 C0.0540272929,13.7557067 0.0945477626,13.6508014 0.189095525,13.5852356 L9.64387179,5.86158329 L9.67088543,5.84847013 L9.67088543,5.82224381 C9.69789908,5.29771734 9.69789908,2.34725595 9.68439226,0.865468674 C9.68439226,0.839242351 9.68439226,0.799902865 9.68439226,0.747450219 C9.67088543,0.354055367 9.67088543,0.144244779 9.83296731,0.0917921321 L9.84647414,0.0917921321 L9.85998096,0.0917921321 C9.87348778,0.0655658086 9.87348778,0.0655658086 9.87348778,0.0655658086 M11.2241701,21.0466246 L11.2241701,20.9286061 L11.4672929,14.3326858 C11.4672929,14.2146673 11.5078134,13.8081593 11.7374294,13.7425935 C11.7509362,13.7425935 11.764443,13.7425935 11.7779499,13.7425935 C11.8049635,13.7425935 11.845484,13.7557067 11.8724976,13.7688198 C11.9265249,13.8081593 12.0210727,13.8737251 11.9805522,15.0539097 L11.994059,20.7319087 L11.994059,20.8892666 L12.1021136,20.7843613 L20.476344,12.7066537 L20.5303713,12.6542011 L20.4628372,12.6148616 L10.0490765,6.34677028 L10.008556,6.32054395 L9.96803554,6.34677028 L0.985998096,13.7557067 L0.91846398,13.8081593 L0.985998096,13.8606119 L11.1161155,20.9679456 L11.2241701,21.0466246 M9.87348778,0 C9.85998096,0 9.85998096,0 9.84647414,0 L9.83296731,0 L9.83296731,0 L9.83296731,0 L9.81946049,0 L9.81946049,0 C9.60335132,0.0655658086 9.61685814,0.327829043 9.63036496,0.721223895 C9.63036496,0.76056338 9.63036496,0.799902865 9.63036496,0.839242351 C9.65737861,2.32102963 9.64387179,5.28460418 9.61685814,5.79601748 L0.162081879,13.5196697 C0.0540272929,13.6114619 0,13.7294803 0,13.8606119 C0,13.9917436 0.0675341162,14.109762 0.175588702,14.188441 L11.3457315,22.1219038 C11.4267725,22.1743565 11.5078134,22.2005828 11.6023612,22.2005828 C11.615868,22.2005828 11.6293748,22.2005828 11.6428816,22.2005828 C11.6698953,22.2005828 11.6969089,22.1874696 11.7239226,22.1874696 C11.7914567,22.1612433 11.8589908,22.135017 11.9130181,22.0825644 L21.2327261,12.9164643 C21.3272739,12.8246722 21.3677944,12.6935406 21.3542875,12.5624089 C21.3407807,12.4312773 21.2597398,12.3132589 21.1516852,12.2476931 L10.4272675,5.756678 C10.4002539,5.41573579 10.3327198,4.06508014 10.2921993,2.97668771 C10.2651857,2.41282176 10.238172,1.8489558 10.2246652,1.38999514 L10.2246652,1.37688198 C10.1706379,0.170471102 10.1031038,0.118018456 10.0220628,0.0524526469 C9.98154237,0.0131131617 9.92751507,0 9.87348778,0 L9.87348778,0 Z M11.156636,20.915493 L1.02651857,13.8081593 L10.0220628,6.35988344 L20.4358235,12.6279747 L12.0615931,20.7056824 L12.0480863,15.0276833 C12.0886068,13.8212725 11.994059,13.7557067 11.9130181,13.6901408 C11.8724976,13.6639145 11.8319772,13.6508014 11.7779499,13.6508014 C11.7509362,13.6508014 11.7374294,13.6508014 11.7104157,13.6639145 C11.4402793,13.7425935 11.386252,14.1491015 11.386252,14.3195726 L11.156636,20.915493 L11.156636,20.915493 Z"></path>
                                </g>
                                <g opacity="0.1" transform="translate(0.203882, 0.196697)" fill="#AA13EB">
                                    <path d="M9.87348778,0.131131617 C9.8869946,0.131131617 9.91400825,0.131131617 9.92751507,0.144244779 C9.98154237,0.183584264 10.0355697,0.367168528 10.0760901,1.37688198 L10.0760901,1.38999514 C10.1031038,1.8489558 10.1301174,2.41282176 10.1436242,2.98980087 C10.1976515,4.0781933 10.2516788,5.42884896 10.2786925,5.76979116 L10.2786925,5.83535697 L10.3327198,5.87469645 L21.0706442,12.3657115 C21.1516852,12.4181642 21.2057125,12.4968431 21.2192193,12.5886353 C21.2327261,12.6804274 21.1922056,12.7722195 21.1381784,12.8377853 L11.8184703,22.0038854 C11.7779499,22.0432249 11.7374294,22.0694512 11.6834021,22.0825644 C11.6698953,22.0825644 11.6428816,22.0956775 11.6293748,22.0956775 C11.615868,22.0956775 11.6023612,22.0956775 11.6023612,22.0956775 C11.534827,22.0956775 11.4672929,22.0694512 11.4267725,22.0432249 L0.256629641,14.109762 C0.175588702,14.0573094 0.135068232,13.9655172 0.135068232,13.8737251 C0.135068232,13.781933 0.175588702,13.6901408 0.243122818,13.6376882 L9.69789908,5.91403594 L9.73841955,5.87469645 L9.73841955,5.82224381 C9.7654332,5.29771734 9.7654332,2.34725595 9.75192637,0.865468674 C9.75192637,0.839242351 9.75192637,0.799902865 9.75192637,0.747450219 C9.73841955,0.393394852 9.73841955,0.196697426 9.84647414,0.157357941 L9.85998096,0.157357941 L9.87348778,0.131131617 C9.87348778,0.131131617 9.87348778,0.131131617 9.87348778,0.131131617 M11.2781974,21.164643 L11.2917042,20.915493 L11.534827,14.3195726 C11.534827,14.0966489 11.6023612,13.8343856 11.764443,13.781933 C11.7779499,13.781933 11.7779499,13.781933 11.7914567,13.781933 C11.8049635,13.781933 11.8319772,13.781933 11.845484,13.7950461 C11.8724976,13.8212725 11.9670454,13.8868383 11.9265249,15.0276833 L11.9400317,20.7056824 L11.9400317,21.0203983 L12.1696477,20.7974745 L20.5438781,12.7197669 L20.6654395,12.6017484 L20.5168645,12.5099563 L10.1031038,6.24186498 L10.0220628,6.18941234 L9.9410219,6.25497814 L0.945477626,13.703254 L0.810409394,13.8081593 L0.945477626,13.8999514 L11.075595,21.0072851 L11.2781974,21.164643 M9.87348778,0 C9.85998096,0 9.85998096,0 9.84647414,0 L9.83296731,0 L9.83296731,0 L9.83296731,0 L9.81946049,0 L9.81946049,0 C9.60335132,0.0655658086 9.61685814,0.327829043 9.63036496,0.721223895 C9.63036496,0.76056338 9.63036496,0.799902865 9.63036496,0.839242351 C9.65737861,2.32102963 9.64387179,5.28460418 9.61685814,5.79601748 L0.162081879,13.5196697 C0.0540272929,13.6114619 0,13.7294803 0,13.8606119 C0,13.9917436 0.0675341162,14.109762 0.175588702,14.188441 L11.3457315,22.1219038 C11.4267725,22.1743565 11.5078134,22.2005828 11.6023612,22.2005828 C11.615868,22.2005828 11.6293748,22.2005828 11.6428816,22.2005828 C11.6698953,22.2005828 11.6969089,22.1874696 11.7239226,22.1874696 C11.7914567,22.1612433 11.8589908,22.135017 11.9130181,22.0825644 L21.2327261,12.9164643 C21.3272739,12.8246722 21.3677944,12.6935406 21.3542875,12.5624089 C21.3407807,12.4312773 21.2597398,12.3132589 21.1516852,12.2476931 L10.4272675,5.756678 C10.4002539,5.41573579 10.3327198,4.06508014 10.2921993,2.97668771 C10.2651857,2.41282176 10.238172,1.8489558 10.2246652,1.38999514 L10.2246652,1.37688198 C10.1706379,0.170471102 10.1031038,0.118018456 10.0220628,0.0524526469 C9.98154237,0.0131131617 9.92751507,0 9.87348778,0 L9.87348778,0 Z M11.156636,20.915493 L1.02651857,13.8081593 L10.0220628,6.35988344 L20.4358235,12.6279747 L12.0615931,20.7056824 L12.0480863,15.0276833 C12.0886068,13.8212725 11.994059,13.7557067 11.9130181,13.6901408 C11.8724976,13.6639145 11.8319772,13.6508014 11.7779499,13.6508014 C11.7509362,13.6508014 11.7374294,13.6508014 11.7104157,13.6639145 C11.4402793,13.7425935 11.386252,14.1491015 11.386252,14.3195726 L11.156636,20.915493 L11.156636,20.915493 Z"></path>
                                </g>
                            </g>
                            <g id="Shape">
                                <path d="M13.6418915,16.9946576 C13.5338369,16.9946576 13.4527959,16.9553181 13.3852618,16.9159786 C13.3582482,16.9028655 13.3312345,16.8897523 13.3042209,16.8766391 L13.2907141,16.8766391 L13.2772072,16.863526 L0.985998096,9.07430792 L1.86394161,14.9358912 C1.93147572,15.3555124 1.94498255,15.6440019 1.94498255,15.8013599 C1.94498255,16.29966 1.87744843,16.5619233 1.72887337,16.5881496 C1.71536655,16.5881496 1.70185973,16.5881496 1.6883529,16.5881496 C1.45873691,16.5881496 1.3371755,16.1423021 1.28314821,15.7751336 C0.891450333,13.5327829 0.108054586,8.41864983 0.0945477626,8.35308402 C0.0945477626,8.24817873 0.135068232,8.1563866 0.229615995,8.09082079 L11.3457315,0.157357941 C11.3727452,0.131131617 11.4132656,0.118018456 11.4402793,0.104905294 C11.4672929,0.0917921321 11.5078134,0.0917921321 11.534827,0.0917921321 C11.5888543,0.0917921321 11.6428816,0.104905294 11.6969089,0.131131617 L24.3933228,6.96308888 C24.4878705,7.01554153 24.5418978,7.10733366 24.5554046,7.19912579 C24.5689115,7.2646916 24.5554046,7.30403108 24.5418978,7.34337057 C24.5418978,7.35648373 24.5418978,7.35648373 24.5418978,7.36959689 C24.5418978,7.40893638 23.8665566,12.4443905 23.461352,14.7916464 C23.4208315,14.9883439 23.380311,15.2374939 23.1912155,15.2899466 L23.1371882,15.3030597 L23.0831609,15.2899466 C22.8400381,15.2112676 22.8670517,14.922778 22.8805586,14.7523069 L22.8805586,14.7260806 C23.0291336,12.9164643 23.4343383,9.5594949 23.609927,8.20883924 L13.8715075,16.9159786 C13.830987,16.9553181 13.7904665,16.9684313 13.749946,16.9815444 C13.7364392,16.9815444 13.7094256,16.9946576 13.6959188,16.9946576 C13.6689051,16.9946576 13.6553983,16.9946576 13.6418915,16.9946576 Z M13.5338369,16.0767363 L23.3262837,7.34337057 L11.9400317,1.14084507 L11.9265249,2.46527441 C11.9265249,3.10781933 11.8049635,3.23895095 11.6698953,3.26517727 C11.6563884,3.26517727 11.6293748,3.27829043 11.615868,3.27829043 C11.615868,3.27829043 11.615868,3.27829043 11.615868,3.27829043 C11.3187179,3.27829043 11.2917042,2.92423507 11.2511838,2.42593492 L11.2376769,2.2948033 C11.2241701,2.09810588 11.1971565,1.59980573 11.1836496,1.2326372 L1.1615868,8.31374454 L13.5338369,16.0767363 Z" fill="#FFFFFF"></path>
                                <path d="M11.5483339,0.196697426 C11.5888543,0.196697426 11.6293748,0.209810588 11.6563884,0.222923749 L24.3528023,7.05488101 C24.4203364,7.0942205 24.4608569,7.14667314 24.4743637,7.22535211 C24.4743637,7.2646916 24.4743637,7.30403108 24.4608569,7.33025741 C24.4608569,7.34337057 24.4608569,7.35648373 24.44735,7.36959689 C24.44735,7.42204954 23.7720089,12.4575036 23.3668042,14.7916464 C23.3262837,15.001457 23.2857632,15.1719281 23.1642018,15.2112676 L23.1371882,15.2243808 L23.1101745,15.2112676 C22.9480927,15.158815 22.9615995,14.9358912 22.9751063,14.7785333 L22.9751063,14.7523069 C23.1371882,12.7984458 23.609927,9.00874211 23.7314884,7.97280233 L13.7904665,16.8504128 C13.7634529,16.8766391 13.7364392,16.8897523 13.7094256,16.9028655 C13.6959188,16.9028655 13.6824119,16.9159786 13.6689051,16.9159786 C13.6553983,16.9159786 13.6418915,16.9159786 13.6418915,16.9159786 C13.5608505,16.9159786 13.4933164,16.8766391 13.4257823,16.8504128 C13.3987686,16.8372997 13.371755,16.8241865 13.3312345,16.8110733 L13.3177277,16.8110733 L13.3177277,16.8110733 L0.850929864,8.90383681 L1.75588702,14.9752307 C1.82342114,15.3948519 1.83692796,15.6702283 1.83692796,15.814473 C1.83692796,16.1160758 1.79640749,16.4832443 1.70185973,16.5094706 C1.70185973,16.5094706 1.6883529,16.5094706 1.6883529,16.5094706 C1.55328467,16.5094706 1.43172326,16.1160758 1.37769597,15.7751336 C0.985998096,13.5327829 0.202602348,8.41864983 0.202602348,8.36619718 C0.202602348,8.30063137 0.229615995,8.2219524 0.297150111,8.18261292 L11.4132656,0.262263235 C11.4402793,0.249150073 11.4537861,0.236036911 11.4807997,0.222923749 C11.4943066,0.196697426 11.5213202,0.196697426 11.5483339,0.196697426 M11.615868,3.1864983 C11.4402793,3.1864983 11.3997588,2.9111219 11.3727452,2.42593492 C11.3727452,2.37348227 11.3592383,2.33414279 11.3592383,2.28169014 C11.3457315,2.04565323 11.305211,1.36376882 11.2917042,1.03593978 L0.999504919,8.30063137 L13.5473437,16.1816416 L23.5018724,7.30403108 L11.845484,0.944147644 L11.8319772,2.43904808 C11.8319772,3.09470617 11.6969089,3.13404565 11.6563884,3.14715881 C11.6428816,3.17338514 11.6293748,3.17338514 11.615868,3.1864983 C11.615868,3.1864983 11.615868,3.1864983 11.615868,3.1864983 M11.5483339,0 C11.5078134,0 11.4672929,0 11.4267725,0.0131131617 C11.3727452,0.0262263235 11.3322247,0.0524526469 11.2917042,0.0786789704 L0.175588702,7.99902865 C0.0675341162,8.07770763 0,8.20883924 0,8.33997086 C0,8.45798932 0.810409394,13.6770277 1.18860044,15.7751336 C1.3371755,16.6668286 1.60731196,16.6668286 1.70185973,16.6668286 C1.71536655,16.6668286 1.7423802,16.6668286 1.75588702,16.6668286 C1.85043478,16.6537154 2.05303713,16.6012627 2.05303713,15.7882467 C2.05303713,15.6308888 2.03953031,15.3423992 1.97199619,14.9096649 L1.13457315,9.27100534 L13.2231799,16.942205 L13.2231799,16.942205 L13.2366868,16.9553181 L13.2501936,16.9553181 L13.2637004,16.9553181 C13.2907141,16.9684313 13.3177277,16.9815444 13.3312345,16.9946576 C13.3987686,17.0339971 13.5068232,17.0864497 13.6418915,17.0864497 C13.6553983,17.0864497 13.6689051,17.0864497 13.6959188,17.0864497 C13.7229324,17.0864497 13.749946,17.0733366 13.7769597,17.0733366 C13.8444938,17.0602234 13.8985211,17.0208839 13.9390416,16.9815444 L23.4748588,8.45798932 C23.2857632,9.93977659 22.921079,13.0082564 22.7860108,14.7129675 L22.7860108,14.7391938 C22.772504,14.9096649 22.7454903,15.2768334 23.0561473,15.3686255 L23.0831609,15.3817387 L23.1371882,15.3948519 L23.1912155,15.3817387 L23.2182291,15.3686255 C23.4748588,15.2899466 23.5288861,15.001457 23.5558997,14.7916464 C23.9611044,12.4706168 24.6229387,7.52695483 24.6364456,7.35648373 C24.6364456,7.34337057 24.6364456,7.34337057 24.6364456,7.34337057 C24.6499524,7.30403108 24.6634592,7.25157844 24.6499524,7.17289947 C24.6364456,7.04176785 24.5554046,6.92374939 24.4338432,6.85818358 L11.7374294,0.0262263235 C11.6834021,0.0131131617 11.615868,0 11.5483339,0 L11.5483339,0 Z M11.615868,3.38319573 C11.615868,3.38319573 11.6293748,3.38319573 11.6293748,3.38319573 C11.6563884,3.38319573 11.6834021,3.38319573 11.7104157,3.37008256 C11.9400317,3.30451676 12.0345795,3.04225352 12.0345795,2.46527441 L12.0480863,1.29820301 L23.150695,7.35648373 L13.5203301,15.9456047 L1.35068232,8.30063137 L11.1026087,1.41622147 C11.1161155,1.75716367 11.1296223,2.1243322 11.1431292,2.2948033 C11.1431292,2.33414279 11.1431292,2.38659543 11.156636,2.42593492 C11.1971565,2.93734823 11.2376769,3.38319573 11.615868,3.38319573 L11.615868,3.38319573 Z" fill="#00E6B8"></path>
                                <g opacity="0.2" transform="translate(0.202602, 0.196697)" fill="#00E6B8">
                                    <path d="M11.3457315,0.0655658086 C11.3727452,0.0655658086 11.3997588,0.0786789704 11.4267725,0.0786789704 L24.1231863,6.91063623 C24.1637068,6.93686255 24.2042272,6.97620204 24.2042272,7.02865469 C24.2042272,7.05488101 24.2042272,7.08110733 24.1907204,7.10733366 C24.1907204,7.12044682 24.1907204,7.13355998 24.1772136,7.14667314 C24.1772136,7.19912579 23.5018724,12.2214667 23.0966677,14.5687227 C23.0696541,14.7391938 23.0291336,14.9096649 22.9480927,14.9358912 L22.9345858,14.9358912 L22.921079,14.9358912 C22.8130244,14.9096649 22.8130244,14.7523069 22.8400381,14.5687227 L22.8400381,14.5424964 C23.00212,12.5886353 23.461352,8.86449733 23.5964202,7.76299174 L23.6234338,7.59252064 L23.4883656,7.7105391 L13.5473437,16.5881496 C13.5338369,16.6012627 13.5068232,16.6143759 13.4798096,16.6274891 C13.4663028,16.6274891 13.4663028,16.6274891 13.4527959,16.6274891 C13.4392891,16.6274891 13.4392891,16.6274891 13.4257823,16.6274891 C13.3582482,16.6274891 13.3042209,16.6012627 13.2501936,16.5619233 C13.2231799,16.5488101 13.1961663,16.5356969 13.1556458,16.5094706 L13.1556458,16.5094706 L13.1556458,16.5094706 L0.688847985,8.60223409 L0.567286576,8.52355512 L0.594300222,8.6677999 L1.49925738,14.7391938 C1.56679149,15.158815 1.58029832,15.4210782 1.58029832,15.5784361 C1.58029832,15.9193783 1.53977785,16.1554153 1.49925738,16.2078679 C1.44523009,16.1816416 1.3371755,15.9587178 1.25613456,15.5390966 C0.850929864,13.2311802 0.0810409394,8.23506557 0.0810409394,8.14327343 C0.0810409394,8.09082079 0.108054586,8.03836814 0.148575056,8.01214182 L11.2646906,0.0786789704 C11.2781974,0.0655658086 11.2917042,0.0655658086 11.3187179,0.0524526469 C11.305211,0.0655658086 11.3322247,0.0655658086 11.3457315,0.0655658086 M11.4132656,2.92423507 C11.2917042,2.92423507 11.2646906,2.64885867 11.2376769,2.21612433 C11.2376769,2.16367169 11.2376769,2.1243322 11.2241701,2.08499271 C11.2106633,1.83584264 11.1701428,1.14084507 11.156636,0.852355512 L11.156636,0.734337057 L11.0485814,0.813016027 L0.756382101,8.06459446 L0.675341162,8.11704711 L0.756382101,8.16949976 L13.3042209,16.05051 L13.3447414,16.0767363 L13.3852618,16.0373968 L23.3397905,7.1597863 L23.4073247,7.0942205 L23.3262837,7.05488101 L11.6834021,0.708110733 L11.5888543,0.655658086 L11.5888543,0.76056338 L11.5753475,2.25546382 C11.5753475,2.64885867 11.5213202,2.88489558 11.4402793,2.9111219 C11.4267725,2.9111219 11.4267725,2.9111219 11.4132656,2.92423507 L11.4132656,2.92423507 M11.3457315,0 C11.3187179,0 11.305211,0 11.2781974,0.0131131617 C11.2511838,0.0262263235 11.2241701,0.0262263235 11.2106633,0.0524526469 L0.0945477626,7.97280233 C0.0405204697,8.01214182 0,8.07770763 0,8.1563866 C0,8.20883924 0.783395747,13.3229723 1.17509362,15.565323 C1.22912091,15.893152 1.35068232,16.29966 1.48575056,16.29966 C1.48575056,16.29966 1.49925738,16.29966 1.49925738,16.29966 C1.59380514,16.2865469 1.63432561,15.9062652 1.63432561,15.6046625 C1.63432561,15.4473045 1.62081879,15.1850413 1.55328467,14.7654201 L0.648327515,8.69402623 L13.1151254,16.6012627 L13.1151254,16.6012627 L13.1286322,16.6012627 C13.1556458,16.6143759 13.1961663,16.6274891 13.2231799,16.6406022 C13.2907141,16.6799417 13.3447414,16.706168 13.4392891,16.706168 C13.4527959,16.706168 13.4527959,16.706168 13.4663028,16.706168 C13.4798096,16.706168 13.4933164,16.706168 13.5068232,16.6930549 C13.5338369,16.6799417 13.5743573,16.6668286 13.5878642,16.6406022 L23.5288861,7.76299174 C23.3938178,8.79893152 22.921079,12.5755221 22.772504,14.5424964 L22.772504,14.5687227 C22.7589971,14.7260806 22.7454903,14.9490044 22.9075722,15.001457 L22.9345858,15.0145702 L22.9615995,15.001457 C23.0831609,14.9621175 23.1236814,14.7916464 23.1642018,14.5818358 C23.5694065,12.2476931 24.2447477,7.19912579 24.2447477,7.1597863 C24.2447477,7.14667314 24.2447477,7.13355998 24.2582545,7.12044682 C24.2717613,7.0942205 24.2717613,7.05488101 24.2717613,7.01554153 C24.2582545,6.94997572 24.2177341,6.88440991 24.1501999,6.84507042 L11.4537861,0.0131131617 C11.4132656,0 11.386252,0 11.3457315,0 L11.3457315,0 Z M11.4132656,2.98980087 C11.4132656,2.98980087 11.4132656,2.98980087 11.4132656,2.98980087 C11.4267725,2.98980087 11.4402793,2.98980087 11.4537861,2.98980087 C11.5078134,2.97668771 11.6293748,2.93734823 11.6293748,2.28169014 L11.6428816,0.786789704 L23.2992701,7.14667314 L13.3447414,16.0242836 L0.796902571,8.14327343 L11.0891019,0.878581836 C11.1026087,1.20641088 11.1296223,1.87518213 11.156636,2.1243322 C11.156636,2.16367169 11.1701428,2.21612433 11.1701428,2.26857698 C11.1971565,2.70131132 11.2241701,2.98980087 11.4132656,2.98980087 L11.4132656,2.98980087 Z"></path>
                                </g>
                                <g opacity="0.1" transform="translate(0.202602, 0.196697)" fill="#00E6B8">
                                    <path d="M11.3457315,0.131131617 C11.3592383,0.131131617 11.3727452,0.131131617 11.386252,0.144244779 L24.0826658,6.97620204 C24.1096795,6.9893152 24.1231863,7.01554153 24.1231863,7.04176785 C24.1231863,7.06799417 24.1231863,7.08110733 24.1096795,7.10733366 C24.1096795,7.12044682 24.1096795,7.13355998 24.0961726,7.1597863 C24.0961726,7.21223895 23.4208315,12.2345799 23.0156268,14.5818358 C23.00212,14.6474017 22.9615995,14.8572122 22.921079,14.8965517 C22.8670517,14.8572122 22.8805586,14.6998543 22.8940654,14.6080622 L22.8940654,14.5818358 C23.0561473,12.6410879 23.5153792,8.90383681 23.6504475,7.81544439 L23.6909679,7.46138902 L23.4208315,7.69742593 L13.4798096,16.5750364 C13.4663028,16.5881496 13.4527959,16.5881496 13.4392891,16.5881496 C13.4392891,16.5881496 13.4257823,16.5881496 13.4257823,16.5881496 C13.4257823,16.5881496 13.4122755,16.5881496 13.4122755,16.5881496 C13.371755,16.5881496 13.3312345,16.5619233 13.2637004,16.5356969 C13.2366868,16.5225838 13.2096731,16.5094706 13.1691526,16.4832443 L0.702354808,8.57600777 L0.445725167,8.41864983 L0.486245636,8.70713939 L1.39120279,14.7785333 C1.45873691,15.1850413 1.47224373,15.4604177 1.47224373,15.6046625 C1.47224373,15.8013599 1.45873691,15.971831 1.43172326,16.0767363 C1.37769597,15.971831 1.32366868,15.7882467 1.28314821,15.5390966 C0.891450333,13.3623118 0.135068232,8.36619718 0.108054586,8.14327343 C0.108054586,8.11704711 0.121561409,8.09082079 0.148575056,8.07770763 L11.2646906,0.144244779 C11.2781974,0.144244779 11.2781974,0.131131617 11.2917042,0.131131617 C11.3187179,0.131131617 11.3322247,0.131131617 11.3457315,0.131131617 M11.4132656,2.85866926 C11.3457315,2.81932977 11.3187179,2.43904808 11.305211,2.21612433 C11.305211,2.16367169 11.2917042,2.1243322 11.2917042,2.08499271 C11.2781974,1.8489558 11.2376769,1.14084507 11.2241701,0.852355512 L11.2106633,0.60320544 L11.0080609,0.747450219 L0.715861631,8.01214182 L0.553779752,8.13016027 L0.715861631,8.23506557 L13.2637004,16.1160758 L13.3447414,16.1685284 L13.4257823,16.1029626 L23.380311,7.22535211 L23.5153792,7.10733366 L23.3532974,7.01554153 L11.6969089,0.655658086 L11.4943066,0.550752793 L11.4943066,0.773676542 L11.4807997,2.26857698 C11.4943066,2.77999029 11.4132656,2.8455561 11.4132656,2.85866926 L11.4132656,2.85866926 L11.4132656,2.85866926 M11.3457315,0 C11.3187179,0 11.305211,0 11.2781974,0.0131131617 C11.2511838,0.0262263235 11.2241701,0.0262263235 11.2106633,0.0524526469 L0.0945477626,7.97280233 C0.0405204697,8.01214182 0,8.07770763 0,8.1563866 C0,8.20883924 0.783395747,13.3229723 1.17509362,15.565323 C1.22912091,15.893152 1.35068232,16.29966 1.48575056,16.29966 C1.48575056,16.29966 1.49925738,16.29966 1.49925738,16.29966 C1.59380514,16.2865469 1.63432561,15.9062652 1.63432561,15.6046625 C1.63432561,15.4473045 1.62081879,15.1850413 1.55328467,14.7654201 L0.648327515,8.69402623 L13.1151254,16.6012627 L13.1151254,16.6012627 L13.1286322,16.6012627 C13.1556458,16.6143759 13.1961663,16.6274891 13.2231799,16.6406022 C13.2907141,16.6799417 13.3447414,16.706168 13.4392891,16.706168 C13.4527959,16.706168 13.4527959,16.706168 13.4663028,16.706168 C13.4798096,16.706168 13.4933164,16.706168 13.5068232,16.6930549 C13.5338369,16.6799417 13.5743573,16.6668286 13.5878642,16.6406022 L23.5288861,7.76299174 C23.3938178,8.79893152 22.921079,12.5755221 22.772504,14.5424964 L22.772504,14.5687227 C22.7589971,14.7260806 22.7454903,14.9490044 22.9075722,15.001457 L22.9345858,15.0145702 L22.9615995,15.001457 C23.0831609,14.9621175 23.1236814,14.7916464 23.1642018,14.5818358 C23.5694065,12.2476931 24.2447477,7.19912579 24.2447477,7.1597863 C24.2447477,7.14667314 24.2447477,7.13355998 24.2582545,7.12044682 C24.2717613,7.0942205 24.2717613,7.05488101 24.2717613,7.01554153 C24.2582545,6.94997572 24.2177341,6.88440991 24.1501999,6.84507042 L11.4537861,0.0131131617 C11.4132656,0 11.386252,0 11.3457315,0 L11.3457315,0 Z M11.4132656,2.98980087 C11.4132656,2.98980087 11.4132656,2.98980087 11.4132656,2.98980087 C11.4267725,2.98980087 11.4402793,2.98980087 11.4537861,2.98980087 C11.5078134,2.97668771 11.6293748,2.93734823 11.6293748,2.28169014 L11.6428816,0.786789704 L23.2992701,7.14667314 L13.3447414,16.0242836 L0.796902571,8.14327343 L11.0891019,0.878581836 C11.1026087,1.20641088 11.1296223,1.87518213 11.156636,2.1243322 C11.156636,2.16367169 11.1701428,2.21612433 11.1701428,2.26857698 C11.1971565,2.70131132 11.2241701,2.98980087 11.4132656,2.98980087 L11.4132656,2.98980087 Z"></path>
                                </g>
                            </g>
                        </g>
                        <path d="M36.8196001,6.04516756 C32.6865122,6.04516756 30.6469819,7.56629432 29.9986544,11.106848 L29.1207109,15.8275862 C28.8640812,17.3093735 29.1747382,18.5026712 30.0796953,19.4730452 C30.9576388,20.430306 32.3893621,20.9286061 34.3343447,20.9286061 C36.4549159,20.9286061 38.048721,20.5220981 39.048226,19.7221952 C40.0477309,18.9354055 40.6960584,17.676542 41.0472358,15.8669257 L41.2228245,14.9621175 L37.6435163,14.9621175 L37.4814345,15.8013599 C37.2518185,17.1389024 36.3468613,17.8207868 34.8205903,17.8207868 C34.0507014,17.8207868 33.4969216,17.6240894 33.159251,17.2438077 C32.8215805,16.8504128 32.7270327,16.2734337 32.8621009,15.4997572 L33.5644557,11.513356 C33.8345922,9.99222924 34.7935766,9.17921321 36.3333545,9.17921321 C37.1167502,9.17921321 37.6840368,9.36279747 38.0082006,9.74307916 C38.3188575,10.0971345 38.4134053,10.621661 38.3053507,11.3035454 L38.1702825,12.0378825 L41.7495906,12.0378825 L41.9251793,11.0806217 C42.1818089,9.59883439 41.8846588,8.37931034 41.0202222,7.46138902 C40.1692923,6.50412822 38.7780895,6.04516756 36.8196001,6.04516756 Z" id="Path" fill="url(#linearGradient-1)"></path>
                        <path d="M50.7856553,20.7319087 L54.4324976,20.7319087 L56.2018915,11.0675085 C56.4585211,9.57260806 56.1478642,8.39242351 55.2294002,7.46138902 C54.2974294,6.51724138 52.7711584,6.04516756 50.6640939,6.04516756 C46.6930879,6.04516756 44.5319962,7.65808645 43.8836687,11.106848 L42.1547953,20.7319087 L45.8151444,20.7319087 L46.5580197,16.6406022 L51.5150238,16.6406022 L50.7856553,20.7319087 Z M52.0552967,13.6376882 L47.0982926,13.6376882 L47.5170041,11.434677 C47.7871406,9.84798446 48.7596319,9.04808159 50.4074643,9.04808159 C51.2178737,9.04808159 51.8121739,9.25789218 52.1633513,9.66440019 C52.5145287,10.0709082 52.6225833,10.6872268 52.4740083,11.4871297 L52.0552967,13.6376882 Z" id="Shape" fill="url(#linearGradient-2)"></path>
                        <path d="M56.9717804,16.2734337 L56.8637258,16.8504128 C56.6611235,18.0305974 57.0123009,18.9878582 57.9307648,19.7615347 C58.8627356,20.5483244 60.3214725,20.9548324 62.2529483,20.9548324 C64.4680673,20.9548324 66.1023929,20.6007771 67.1018978,19.8926663 C68.1149096,19.1976688 68.7497302,18.1486158 69.073894,16.6668286 L69.1144145,16.4832443 C69.5601396,14.3326858 68.236471,12.9033511 65.1839289,12.2345799 C65.1163948,12.2214667 65.0353539,12.2083536 64.9408061,12.1821272 C64.7787242,12.1559009 64.6031355,12.1165614 64.4005332,12.077222 L64.1168899,12.0116561 C63.6711647,11.919864 63.4415487,11.8674114 63.0498508,11.7493929 C62.4150301,11.5658086 61.6991685,11.2510928 61.8477436,10.3462846 L61.8747572,10.2544925 C62.0638527,9.25789218 62.9417963,8.7727052 64.5356014,8.7727052 C65.4540654,8.7727052 66.0618724,8.95628946 66.3860362,9.33657115 C66.629159,9.61194755 66.7101999,9.97911608 66.629159,10.4380767 L66.6021454,10.621661 L70.1004126,10.621661 L70.1949603,10.0971345 C70.4110695,8.91694998 70.0463853,7.95968917 69.1009076,7.17289947 C68.1419232,6.41233609 66.7101999,6.01894123 64.873272,6.01894123 C60.9427864,6.01894123 58.6871469,7.46138902 58.2009013,10.3200583 L58.1873945,10.4380767 C57.9577785,11.7756192 58.3224627,12.8508985 59.2274199,13.4803303 C60.0918566,14.0835357 60.9022659,14.4113647 62.198921,14.673628 C62.2394414,14.6867411 62.2934687,14.6998543 62.3610029,14.7129675 C62.4420438,14.7260806 62.5500984,14.7523069 62.6716598,14.7785333 C63.2254395,14.8965517 63.6441511,14.9752307 63.8737671,15.0407965 C64.1033831,15.1063623 64.3600127,15.1850413 64.6841765,15.3161729 C65.3460108,15.5784361 65.5486131,15.9062652 65.4540654,16.5619233 L65.4405586,16.7192812 C65.251463,17.7158815 64.3194922,18.2141816 62.6716598,18.2141816 C61.6316344,18.2141816 60.9968137,18.0437105 60.67265,17.6634288 C60.443034,17.3880525 60.361993,17.0077708 60.4565408,16.5094706 L60.4970613,16.2734337 L56.9717804,16.2734337 L56.9717804,16.2734337 Z" id="Path" fill="url(#linearGradient-3)"></path>
                        <polygon id="Path" fill="url(#linearGradient-4)" points="70.4245763 20.7319087 74.0984322 20.7319087 76.718756 6.24186498 73.0719137 6.24186498"></polygon>
                        <path d="M85.349616,20.7319087 L89.1180197,20.7319087 L91.7383434,6.24186498 L88.2265693,6.24186498 L87.8348715,8.70713939 C87.4701872,11.106848 87.1460235,13.5852356 86.8893938,16.0767363 L86.8218597,16.6537154 L83.053456,6.24186498 L79.312066,6.24186498 L76.6647287,20.7319087 L80.1765027,20.7319087 L80.4196255,19.1189898 C80.7978166,16.6799417 81.1354871,13.8999514 81.3921168,10.8708111 L81.4461441,10.2807188 L85.349616,20.7319087 Z" id="Path" fill="url(#linearGradient-5)"></path>
                        <path d="M99.869451,6.04516756 C95.8309108,6.04516756 93.6563123,7.63186013 93.0349984,11.028169 L92.1705617,15.7882467 C91.9004253,17.2962603 92.224589,18.5420107 93.1700666,19.4861583 C94.0885306,20.4434191 95.6418153,20.915493 97.7758934,20.915493 C101.82794,20.915493 104.002539,19.3025741 104.63736,15.8538125 L104.63736,15.8538125 L105.501796,11.0937348 C105.771933,9.62506071 105.447769,8.39242351 104.502291,7.44827586 C103.516293,6.53035454 101.963009,6.04516756 99.869451,6.04516756 Z M98.1000571,17.8076736 C97.1815931,17.8076736 96.5197588,17.5847499 96.1550746,17.1651287 C95.8309108,16.784847 95.7228562,16.2472074 95.8579245,15.5522098 L96.6278134,11.4084507 C96.884443,9.92666343 97.8434275,9.17921321 99.4912599,9.17921321 C100.423231,9.17921321 101.085065,9.40213696 101.449749,9.82175814 C101.773913,10.2020398 101.881968,10.7527926 101.746899,11.4477902 L101.004024,15.5915493 C100.733888,17.0602234 99.7613964,17.8076736 98.1000571,17.8076736 Z" id="Shape" fill="url(#linearGradient-6)"></path>
                        <polygon id="Path" fill="url(#linearGradient-7)" points="105.879987 20.7319087 109.553843 20.7319087 110.445294 15.7357941 115.510352 15.7357941 116.091146 12.6148616 111.026087 12.6148616 111.593374 9.36279747 117.617417 9.36279747 118.184703 6.24186498 108.527325 6.24186498"></polygon>
                        <path d="M125.613456,20.7319087 L129.273805,20.7319087 L131.043199,11.0675085 C131.299829,9.57260806 130.989172,8.39242351 130.070708,7.46138902 C129.138737,6.51724138 127.612466,6.04516756 125.505401,6.04516756 C121.534395,6.04516756 119.373304,7.65808645 118.724976,11.106848 L116.996103,20.7319087 L120.656452,20.7319087 L121.399327,16.6406022 L126.356331,16.6406022 L125.613456,20.7319087 Z M126.883097,13.6376882 L121.926093,13.6376882 L122.344805,11.434677 C122.614941,9.84798446 123.587433,9.04808159 125.235265,9.04808159 C126.045674,9.04808159 126.639975,9.25789218 126.991152,9.66440019 C127.342329,10.0709082 127.450384,10.6872268 127.301809,11.4871297 L126.883097,13.6376882 Z" id="Shape" fill="url(#linearGradient-8)"></path>
                        <polygon id="Path" fill="url(#linearGradient-9)" points="131.651006 20.7319087 135.324862 20.7319087 137.945186 6.24186498 134.284837 6.24186498"></polygon>
                        <path d="M146.38695,20.7319087 L150.209381,20.7319087 L148.453494,15.565323 L148.561549,15.5128703 C150.587572,14.6342885 151.452009,13.5458961 151.789679,11.5002428 L151.938255,10.7134531 C152.154364,9.45458961 151.803186,8.37931034 150.884722,7.52695483 C149.952752,6.67459932 148.548042,6.24186498 146.724621,6.24186498 L140.552003,6.24186498 L137.904665,20.7319087 L141.578521,20.7319087 L142.429451,16.0373968 L145.076788,16.0373968 L146.38695,20.7319087 Z M145.373938,13.3491986 L142.90219,13.3491986 L143.631558,9.25789218 L146.04928,9.25789218 C146.94073,9.25789218 147.548537,9.44147644 147.886208,9.8348713 C148.183358,10.1758135 148.264399,10.6478873 148.156344,11.2773191 L148.115824,11.4477902 C147.899714,12.6935406 146.98125,13.3491986 145.373938,13.3491986 Z" id="Shape" fill="url(#linearGradient-10)"></path>
                    </g>
                </g>
            </g>
        </g>
    </g>
</svg>