<svg width="152" height="27" viewBox="0 0 152 27" fill="none" xmlns="http://www.w3.org/2000/svg">
<path fill-rule="evenodd" clip-rule="evenodd" d="M13.1286 26.8033C13.2232 26.8689 13.3312 26.9082 13.4528 26.9082C13.4663 26.9082 13.4933 26.9082 13.4933 26.9344C13.5203 26.9344 13.5609 26.9344 13.5879 26.9213C13.6689 26.8951 13.7499 26.8558 13.8175 26.7902L23.1372 17.6241C23.2452 17.5061 23.2993 17.3487 23.2858 17.1914C23.2588 17.0209 23.1642 16.8766 23.0291 16.798L12.3452 10.3332C12.3182 9.92666 12.2507 8.6678 12.2102 7.65809V7.59252C12.1967 7.02865 12.1696 6.46479 12.1426 5.99271C12.0888 4.75204 12.0216 4.69496 11.9143 4.60384L11.913 4.60272C11.859 4.55027 11.7915 4.52404 11.7104 4.52404H11.6699H11.6429H11.6159H11.6024C11.3224 4.61464 11.3319 4.90965 11.3452 5.3208L11.3457 5.33706V5.44196C11.3727 6.88441 11.3592 9.72997 11.3457 10.3463L1.91797 18.0437C1.79641 18.1486 1.72887 18.2929 1.72887 18.4633C1.74238 18.6207 1.82342 18.778 1.95849 18.8698L13.1286 26.8033ZM13.1421 18.9354L12.899 25.3346L3.03904 18.3978L11.886 11.0806L22.1242 17.2569L14.0066 25.0855L13.9931 19.6566C14.0336 18.3978 13.9255 18.3191 13.8175 18.2404C13.7635 18.2011 13.6959 18.1748 13.6284 18.1748C13.6014 18.1748 13.5609 18.1748 13.5338 18.188C13.1962 18.2929 13.1421 18.7387 13.1421 18.9354Z" fill="white"/>
<path fill-rule="evenodd" clip-rule="evenodd" d="M11.7104 4.40602H11.6699H11.6429H11.6294H11.6024H11.5889C11.2258 4.51046 11.2376 4.88786 11.251 5.31822L11.2512 5.32394V5.42885C11.2647 6.84507 11.2647 9.58572 11.2512 10.2807L1.86394 17.965C1.71537 18.0962 1.62082 18.2666 1.63432 18.4633C1.63432 18.66 1.74238 18.8305 1.90446 18.9485L13.0746 26.882C13.1827 26.9607 13.3177 27 13.4528 27H13.5203C13.5609 27 13.6014 26.9869 13.6419 26.9738C13.7499 26.9475 13.8445 26.882 13.912 26.8164L23.2317 17.6503C23.3668 17.5192 23.4343 17.3225 23.4073 17.1389C23.3803 16.9422 23.2723 16.7848 23.1102 16.6799L12.4668 10.2414C12.4539 10.0221 12.4348 9.62904 12.4125 9.16967L12.4125 9.16954L12.4125 9.16911C12.3881 8.66733 12.3599 8.08645 12.3317 7.56629V7.55318C12.3047 6.98931 12.2777 6.42545 12.2642 5.96649V5.95337C12.2102 4.72074 12.1291 4.60272 11.9941 4.4847C11.913 4.43225 11.8185 4.40602 11.7104 4.40602ZM11.8455 4.65517C11.805 4.61583 11.7644 4.60272 11.7104 4.60272H11.6969H11.6834H11.6699C11.4581 4.66698 11.4668 4.92017 11.48 5.30057L11.4808 5.32394V5.44196C11.4943 6.93686 11.4808 9.88732 11.4673 10.3987L2.01252 18.1224C1.90446 18.2011 1.85043 18.3322 1.85043 18.4633C1.85043 18.5945 1.91797 18.7125 2.02602 18.7912L13.1827 26.7246C13.2502 26.7771 13.3447 26.8033 13.4393 26.8033H13.4798C13.5068 26.8033 13.5338 26.8033 13.5609 26.7902C13.6284 26.7771 13.6959 26.7377 13.7499 26.6853L23.0697 17.5192C23.1642 17.4274 23.2047 17.2963 23.1912 17.1651C23.1777 17.034 23.1102 16.916 22.9886 16.8504L12.2507 10.3594C12.2341 10.1505 12.2075 9.56275 12.1768 8.88847C12.1575 8.46206 12.1365 8.00105 12.1156 7.57941C12.1021 7.01554 12.0751 6.45167 12.0481 5.99271V5.9796C11.9952 4.79931 11.9165 4.72355 11.8499 4.65942L11.8455 4.65517ZM13.2367 18.9354L12.9936 25.5182L2.87695 18.424L11.8725 10.9757L22.2863 17.2438L13.912 25.3215L13.8985 19.6435C13.939 18.4371 13.8445 18.3584 13.7635 18.306C13.7229 18.2797 13.6824 18.2666 13.6284 18.2666C13.6149 18.2666 13.6047 18.2699 13.5946 18.2732C13.5845 18.2765 13.5744 18.2797 13.5609 18.2797C13.2772 18.3584 13.2367 18.7649 13.2367 18.9354ZM11.8995 11.2118L3.20112 18.3978L12.818 25.1248L13.0476 18.9092C13.0611 18.4633 13.2367 18.1486 13.5203 18.0699C13.5609 18.0568 13.6014 18.0568 13.6419 18.0568C13.7364 18.0568 13.8175 18.0962 13.8985 18.1486C14.0606 18.2666 14.1552 18.4109 14.1146 19.6435L14.1281 24.8494L21.9756 17.2831L11.8995 11.2118Z" fill="#AA13EB"/>
<g opacity="0.2">
<path fill-rule="evenodd" clip-rule="evenodd" d="M11.7104 4.60272H11.6834H11.6699H11.6564C11.4446 4.66698 11.4533 4.92017 11.4665 5.30058L11.4673 5.32395V5.44196C11.4943 6.92375 11.4808 9.88733 11.4538 10.3987L1.99901 18.1224C1.89095 18.2142 1.83693 18.3322 1.83693 18.4633C1.83693 18.5945 1.90446 18.7125 2.01251 18.7912L13.1827 26.7246C13.2637 26.7771 13.3447 26.8033 13.4393 26.8033H13.4798C13.4933 26.8033 13.5068 26.8 13.5203 26.7968L13.5203 26.7967C13.5338 26.7935 13.5473 26.7902 13.5608 26.7902C13.6284 26.764 13.6959 26.7377 13.7499 26.6853L23.0697 17.5192C23.1642 17.4274 23.2047 17.2963 23.1912 17.1651C23.1777 17.034 23.0967 16.916 22.9886 16.8504L12.2642 10.3594C12.2372 10.0185 12.1696 8.6678 12.1291 7.57941C12.1021 7.01554 12.0751 6.45168 12.0616 5.99272V5.9796C12.0077 4.77545 11.9403 4.72094 11.8594 4.65554L11.859 4.65517C11.8185 4.61584 11.7644 4.60272 11.7104 4.60272ZM11.805 4.70763C11.7779 4.6814 11.7509 4.66829 11.7104 4.66829L11.6969 4.69451H11.6834H11.6699C11.5078 4.74697 11.5078 4.95678 11.5213 5.35017V5.46819C11.5348 6.94998 11.5348 9.90044 11.5078 10.425V10.4512L11.4808 10.4643L2.02602 18.188C1.93147 18.2535 1.89095 18.3584 1.89095 18.4764C1.89095 18.5945 1.94498 18.6994 2.03953 18.7649L13.2097 26.6984C13.2637 26.7377 13.3447 26.764 13.4258 26.764H13.4663C13.4933 26.764 13.5068 26.764 13.5338 26.7509C13.6014 26.7377 13.6554 26.6984 13.6959 26.6591L23.0156 17.493C23.0967 17.4143 23.1372 17.3094 23.1237 17.1914C23.1102 17.0865 23.0426 16.9815 22.9481 16.9291L12.2102 10.4381L12.1832 10.425V10.3856C12.1667 10.1694 12.1401 9.58642 12.1096 8.91738C12.0902 8.49086 12.0691 8.02937 12.0481 7.60564C12.0346 7.02866 12.0076 6.46479 11.9805 6.00583V5.99272C11.9265 4.81253 11.859 4.74697 11.805 4.70763ZM13.0611 25.5313V25.6493L12.953 25.5707L2.82292 18.4633L2.75539 18.4109L2.82292 18.3584L11.805 10.9495L11.8455 10.9233L11.886 10.9495L22.2998 17.2176L22.3673 17.2569L22.3133 17.3094L13.939 25.3871L13.831 25.492V25.3346L13.8175 19.6566C13.8579 18.4796 13.764 18.4112 13.7099 18.3719L13.7094 18.3715C13.6824 18.3584 13.6419 18.3453 13.6149 18.3453H13.5744C13.3447 18.4109 13.3042 18.8174 13.3042 18.9354L13.0611 25.5313ZM2.86344 18.4109L12.9936 25.5182L13.2232 18.9223C13.2232 18.7518 13.2772 18.3453 13.5473 18.2666C13.5744 18.2535 13.5879 18.2535 13.6149 18.2535C13.6689 18.2535 13.7094 18.2666 13.7499 18.2929L13.7521 18.2946C13.8326 18.3596 13.9252 18.4344 13.885 19.6304L13.8985 25.3084L22.2727 17.2307L11.859 10.9626L2.86344 18.4109Z" fill="#AA13EB"/>
</g>
<g opacity="0.1">
<path fill-rule="evenodd" clip-rule="evenodd" d="M11.7104 4.60272H11.6834H11.6699H11.6564C11.4446 4.66698 11.4533 4.92017 11.4665 5.30058L11.4673 5.32395V5.44196C11.4943 6.92375 11.4808 9.88733 11.4538 10.3987L1.99901 18.1224C1.89095 18.2142 1.83693 18.3322 1.83693 18.4633C1.83693 18.5945 1.90446 18.7125 2.01251 18.7912L13.1827 26.7246C13.2637 26.7771 13.3447 26.8033 13.4393 26.8033H13.4798C13.4933 26.8033 13.5068 26.8 13.5203 26.7968L13.5203 26.7967C13.5338 26.7935 13.5473 26.7902 13.5608 26.7902C13.6284 26.764 13.6959 26.7377 13.7499 26.6853L23.0697 17.5192C23.1642 17.4274 23.2047 17.2963 23.1912 17.1651C23.1777 17.034 23.0967 16.916 22.9886 16.8504L12.2642 10.3594C12.2372 10.0185 12.1696 8.6678 12.1291 7.57941C12.1021 7.01554 12.0751 6.45168 12.0616 5.99272V5.9796C12.0077 4.77545 11.9403 4.72094 11.8594 4.65554L11.859 4.65517C11.8185 4.61584 11.7644 4.60272 11.7104 4.60272ZM11.7644 4.74697C11.7509 4.73385 11.7239 4.73385 11.7104 4.73385L11.6969 4.76008H11.6834C11.5753 4.79942 11.5753 4.99612 11.5889 5.35017V5.46819C11.6024 6.94998 11.6024 9.90044 11.5753 10.425V10.4774L11.5348 10.5168L2.08005 18.2404C2.01251 18.2929 1.97199 18.3847 1.97199 18.4764C1.97199 18.5682 2.01251 18.66 2.09356 18.7125L13.2637 26.6459C13.3042 26.6722 13.3718 26.6984 13.4393 26.6984H13.4663C13.473 26.6984 13.4832 26.6951 13.4933 26.6919L13.4933 26.6918C13.5034 26.6886 13.5136 26.6853 13.5203 26.6853C13.5744 26.6722 13.6149 26.6459 13.6554 26.6066L22.9751 17.4405C23.0291 17.3749 23.0697 17.2831 23.0561 17.1914C23.0426 17.0996 22.9886 17.0209 22.9076 16.9684L12.1696 10.4774L12.1156 10.4381V10.3725C12.0991 10.1637 12.0724 9.57589 12.0418 8.90162V8.90159C12.0224 8.47518 12.0015 8.01417 11.9805 7.59252C11.967 7.01554 11.94 6.45168 11.913 5.99272V5.9796C11.8725 4.96989 11.8185 4.78631 11.7644 4.74697ZM13.1286 25.5182L13.1151 25.7674L12.9125 25.61L2.7824 18.5027L2.64733 18.4109L2.7824 18.306L11.7779 10.8577L11.859 10.7921L11.94 10.8446L22.3538 17.1127L22.5024 17.2045L22.3808 17.3225L14.0066 25.4002L13.777 25.6231V25.3084L13.7635 19.6304C13.8031 18.5127 13.7132 18.4271 13.6841 18.3994L13.6824 18.3978C13.6689 18.3847 13.6419 18.3847 13.6284 18.3847H13.6014C13.4393 18.4371 13.3718 18.6994 13.3718 18.9223L13.1286 25.5182ZM2.86344 18.4109L12.9936 25.5182L13.2232 18.9223C13.2232 18.7518 13.2772 18.3453 13.5473 18.2666C13.5744 18.2535 13.5879 18.2535 13.6149 18.2535C13.6689 18.2535 13.7094 18.2666 13.7499 18.2929L13.7521 18.2946C13.8326 18.3596 13.9252 18.4344 13.885 19.6304L13.8985 25.3084L22.2727 17.2307L11.859 10.9626L2.86344 18.4109Z" fill="#AA13EB"/>
</g>
<path fill-rule="evenodd" clip-rule="evenodd" d="M13.3853 16.916C13.4528 16.9553 13.5338 16.9947 13.6419 16.9947H13.6959C13.7027 16.9947 13.7128 16.9914 13.7229 16.9881C13.7331 16.9848 13.7432 16.9815 13.7499 16.9815C13.7905 16.9684 13.831 16.9553 13.8715 16.916L23.6099 8.20884C23.4343 9.55949 23.0291 12.9165 22.8806 14.7261V14.7523L22.8799 14.7606C22.8663 14.9319 22.8439 15.2125 23.0832 15.2899L23.1372 15.3031L23.1912 15.2899C23.3702 15.2403 23.4161 15.0144 23.4548 14.8236C23.457 14.8128 23.4592 14.8022 23.4614 14.7916C23.8666 12.4444 24.5419 7.40893 24.5419 7.36959V7.34337C24.5554 7.30403 24.5689 7.26469 24.5554 7.19912C24.5419 7.10733 24.4879 7.01554 24.3933 6.96309L11.6969 0.131129C11.6429 0.104902 11.5889 0.0917892 11.5348 0.0917892C11.5078 0.0917892 11.4673 0.0917892 11.4403 0.104902C11.4339 0.107998 11.4268 0.111094 11.4192 0.114362C11.3949 0.124938 11.3664 0.13732 11.3457 0.157355L0.229616 8.09082C0.135068 8.15638 0.0945473 8.24818 0.0945473 8.35308C0.0974815 8.36732 0.136749 8.61982 0.20044 9.02938C0.429936 10.5051 0.976542 14.0199 1.28315 15.7751C1.33718 16.1423 1.45874 16.5881 1.68835 16.5881H1.72887C1.87745 16.5619 1.94498 16.2997 1.94498 15.8014C1.94498 15.644 1.93148 15.3555 1.86394 14.9359L0.985998 9.0743L13.2772 16.8635L13.2907 16.8766H13.3042L13.3853 16.916ZM23.3263 7.34337L13.5338 16.0767L1.16159 8.31374L11.1836 1.23263C11.1972 1.5998 11.2242 2.0981 11.2377 2.2948L11.2512 2.42593L11.2519 2.43477C11.292 2.92841 11.3205 3.27829 11.6159 3.27829C11.6226 3.27829 11.6328 3.27501 11.6429 3.27173C11.653 3.26845 11.6631 3.26517 11.6699 3.26517C11.805 3.23895 11.9265 3.10782 11.9265 2.46527L11.94 1.14084L23.3263 7.34337Z" fill="white"/>
<path fill-rule="evenodd" clip-rule="evenodd" d="M11.5483 0C11.5078 0 11.4673 0 11.4268 0.0131132C11.3727 0.026226 11.3322 0.0524512 11.2917 0.0786767L11.2917 0.078679L0.175589 7.99903C0.0675341 8.07771 0 8.20884 0 8.33997C0 8.45799 0.810409 13.677 1.1886 15.7751C1.33718 16.6668 1.60731 16.6668 1.70186 16.6668H1.75589C1.85043 16.6537 2.05304 16.6013 2.05304 15.7882C2.05304 15.6309 2.03953 15.3424 1.972 14.9097L1.13457 9.27101L13.2232 16.9422L13.2367 16.9553H13.2502H13.2637C13.2907 16.9684 13.3177 16.9815 13.3312 16.9947C13.3988 17.034 13.5068 17.0865 13.6419 17.0865H13.6959C13.7094 17.0865 13.7229 17.0832 13.7364 17.0799C13.7499 17.0766 13.7635 17.0733 13.777 17.0733C13.8445 17.0602 13.8985 17.0209 13.939 16.9815L23.4749 8.45799C23.2858 9.93978 22.9211 13.0083 22.786 14.713V14.7392C22.7725 14.9097 22.7455 15.2768 23.0561 15.3686L23.0832 15.3817L23.1372 15.3949L23.1912 15.3817L23.2182 15.3686C23.4749 15.2899 23.5289 15.0015 23.5559 14.7916C23.9611 12.4706 24.6229 7.52696 24.6364 7.35648V7.34337C24.65 7.30403 24.6635 7.25158 24.65 7.1729C24.6364 7.04177 24.5554 6.92375 24.4338 6.85818L11.7374 0.0262263C11.6834 0.0131132 11.6159 0 11.5483 0ZM11.6564 0.222924C11.6294 0.209811 11.5889 0.196697 11.5483 0.196697C11.5213 0.196697 11.4943 0.196697 11.4808 0.222924C11.4673 0.22948 11.4572 0.236037 11.447 0.242593C11.4369 0.24915 11.4268 0.255707 11.4133 0.262263L0.29715 8.18261C0.229616 8.22195 0.202602 8.30063 0.202602 8.3662C0.202602 8.41865 0.985998 13.5328 1.3777 15.7751C1.43172 16.1161 1.55328 16.5095 1.68835 16.5095H1.70186C1.79641 16.4832 1.83693 16.1161 1.83693 15.8145C1.83693 15.6702 1.82342 15.3949 1.75589 14.9752L0.85093 8.90384L13.3177 16.8111H13.3312C13.3718 16.8242 13.3988 16.8373 13.4258 16.8504C13.441 16.8563 13.4562 16.8629 13.4715 16.8695C13.5244 16.8924 13.5791 16.916 13.6419 16.916H13.6689C13.6757 16.916 13.6824 16.9127 13.6892 16.9094C13.6959 16.9061 13.7027 16.9029 13.7094 16.9029C13.7364 16.8898 13.7635 16.8766 13.7905 16.8504L23.7315 7.9728C23.7101 8.15535 23.6777 8.42342 23.6381 8.75188C23.453 10.2874 23.1086 13.1428 22.9751 14.7523V14.7785C22.9616 14.9359 22.9481 15.1588 23.1102 15.2113L23.1372 15.2244L23.1642 15.2113C23.2858 15.1719 23.3263 15.0015 23.3668 14.7916C23.772 12.4575 24.4473 7.42205 24.4473 7.3696C24.4609 7.35648 24.4609 7.34337 24.4609 7.33026C24.4744 7.30403 24.4744 7.26469 24.4744 7.22535C24.4609 7.14667 24.4203 7.09422 24.3528 7.05488L11.6564 0.222924ZM11.3727 2.42594C11.3998 2.91112 11.4403 3.1865 11.6159 3.1865C11.6204 3.18213 11.6249 3.17921 11.6294 3.1763C11.6384 3.17047 11.6474 3.16464 11.6564 3.14716L11.6572 3.1469C11.6987 3.13351 11.832 3.09046 11.832 2.43905L11.8455 0.944148L23.5019 7.30403L13.5473 16.1816L0.999505 8.30063L11.2917 1.03594C11.3032 1.31384 11.334 1.84617 11.3514 2.14565L11.3592 2.28169C11.3592 2.30791 11.3626 2.33085 11.366 2.3538L11.366 2.35381C11.3694 2.37676 11.3727 2.39971 11.3727 2.42594ZM11.6294 3.3832H11.6159C11.2377 3.3832 11.1972 2.93735 11.1566 2.42593C11.1431 2.3866 11.1431 2.33414 11.1431 2.2948C11.1312 2.14439 11.1193 1.84083 11.1074 1.53728C11.1058 1.49681 11.1042 1.45633 11.1026 1.41622L1.35068 8.30063L13.5203 15.9456L23.1507 7.35648L12.0481 1.2982L12.0346 2.46527C12.0346 3.04225 11.94 3.30452 11.7104 3.37008C11.6834 3.3832 11.6564 3.3832 11.6294 3.3832Z" fill="#00E6B8"/>
<g opacity="0.2">
<path fill-rule="evenodd" clip-rule="evenodd" d="M11.5483 0.196701C11.5213 0.196701 11.5078 0.196701 11.4808 0.209814C11.4727 0.213727 11.4647 0.216472 11.457 0.219095L11.457 0.219096C11.4389 0.225263 11.4227 0.230754 11.4133 0.249154L0.29715 8.1695C0.243123 8.20884 0.202602 8.27441 0.202602 8.35309C0.202602 8.40554 0.985998 13.5197 1.3777 15.762C1.43172 16.0899 1.55328 16.4964 1.68835 16.4964H1.70186C1.79641 16.4832 1.83693 16.103 1.83693 15.8014C1.83693 15.644 1.82342 15.3817 1.75589 14.9621L0.85093 8.89073L13.3177 16.798H13.3312C13.3447 16.8045 13.3616 16.8111 13.3785 16.8176L13.3785 16.8176L13.3785 16.8176C13.3954 16.8242 13.4123 16.8307 13.4258 16.8373C13.4933 16.8766 13.5473 16.9029 13.6419 16.9029H13.6689C13.6824 16.9029 13.6959 16.9029 13.7094 16.8898C13.7146 16.8872 13.7203 16.8847 13.7262 16.8821C13.751 16.8711 13.7796 16.8585 13.7905 16.8373L23.7315 7.95969C23.5964 8.99563 23.1237 12.7722 22.9751 14.7392V14.7654C22.9616 14.9228 22.9481 15.1457 23.1102 15.1982L23.1372 15.2113L23.1642 15.1982C23.2858 15.1588 23.3263 14.9883 23.3668 14.7785C23.772 12.4444 24.4473 7.39583 24.4473 7.35649C24.4473 7.34337 24.4474 7.33026 24.4609 7.31715C24.4744 7.29092 24.4744 7.25158 24.4744 7.21224C24.4609 7.14668 24.4203 7.08111 24.3528 7.04177L11.6564 0.209814C11.6159 0.196701 11.5889 0.196701 11.5483 0.196701ZM11.5889 0.268823C11.5753 0.265545 11.5618 0.262267 11.5483 0.262267C11.5348 0.262267 11.5078 0.262267 11.5213 0.249154C11.511 0.254162 11.5027 0.257258 11.4955 0.259902C11.484 0.26418 11.4756 0.267276 11.4673 0.27538L0.351177 8.20884C0.310657 8.23507 0.283643 8.28752 0.283643 8.33997C0.283643 8.43177 1.05353 13.4279 1.45874 15.7358C1.53978 16.1554 1.64783 16.3783 1.70186 16.4046C1.74238 16.3521 1.7829 16.1161 1.7829 15.7751C1.7829 15.6178 1.76939 15.3555 1.70186 14.9359L0.796903 8.8645L0.769889 8.72026L0.89145 8.79894L13.3582 16.7062C13.3988 16.7324 13.4258 16.7455 13.4528 16.7586C13.5068 16.798 13.5609 16.8242 13.6284 16.8242H13.6554H13.6824C13.7094 16.8111 13.7364 16.798 13.7499 16.7848L23.691 7.90724L23.826 7.78922L23.799 7.95969L23.7864 8.06272C23.6374 9.27706 23.2 12.8424 23.0426 14.7392V14.7654C23.0156 14.949 23.0156 15.1064 23.1237 15.1326H23.1372H23.1507C23.2317 15.1064 23.2723 14.9359 23.2993 14.7654C23.7045 12.4182 24.3798 7.39583 24.3798 7.34337C24.3933 7.33026 24.3933 7.31715 24.3933 7.30403C24.4068 7.27781 24.4068 7.25158 24.4068 7.22536C24.4068 7.1729 24.3663 7.13356 24.3258 7.10734L11.6294 0.27538C11.6159 0.27538 11.6024 0.272102 11.5889 0.268823ZM11.4403 2.41283C11.4673 2.84556 11.4943 3.12094 11.6159 3.12094C11.6294 3.10782 11.6294 3.10782 11.6429 3.10782C11.7239 3.0816 11.778 2.84556 11.778 2.45216L11.7915 0.957264V0.852359L11.886 0.904812L23.5289 7.25158L23.6099 7.29092L23.5424 7.35649L13.5879 16.2341L13.5473 16.2734L13.5068 16.2472L0.958984 8.3662L0.877944 8.31375L0.958984 8.2613L11.2512 1.00972L11.3592 0.931038V1.04906C11.3685 1.24786 11.3907 1.63969 11.408 1.94564C11.4158 2.08368 11.4226 2.20423 11.4268 2.28169C11.4403 2.32103 11.4403 2.36037 11.4403 2.41283ZM11.6564 3.1865H11.6159C11.4268 3.1865 11.3998 2.89801 11.3727 2.46528C11.3727 2.43717 11.3689 2.40906 11.3653 2.38297C11.3621 2.36037 11.3592 2.33929 11.3592 2.32103C11.333 2.07922 11.3068 1.44215 11.2929 1.10513L11.2917 1.07528L0.999505 8.33997L13.5473 16.221L23.5019 7.34337L11.8455 0.983491L11.832 2.47839C11.832 3.13405 11.7104 3.17339 11.6564 3.1865Z" fill="#00E6B8"/>
</g>
<g opacity="0.1">
<path fill-rule="evenodd" clip-rule="evenodd" d="M11.5483 0.196701C11.5213 0.196701 11.5078 0.196701 11.4808 0.209814C11.4727 0.213727 11.4647 0.216472 11.457 0.219095L11.457 0.219096C11.4389 0.225263 11.4227 0.230754 11.4133 0.249154L0.29715 8.1695C0.243123 8.20884 0.202602 8.27441 0.202602 8.35309C0.202602 8.40554 0.985998 13.5197 1.3777 15.762C1.43172 16.0899 1.55328 16.4964 1.68835 16.4964H1.70186C1.79641 16.4832 1.83693 16.103 1.83693 15.8014C1.83693 15.644 1.82342 15.3817 1.75589 14.9621L0.85093 8.89073L13.3177 16.798H13.3312C13.3447 16.8045 13.3616 16.8111 13.3785 16.8176L13.3785 16.8176L13.3785 16.8176C13.3954 16.8242 13.4123 16.8307 13.4258 16.8373C13.4933 16.8766 13.5473 16.9029 13.6419 16.9029H13.6689C13.6824 16.9029 13.6959 16.9029 13.7094 16.8898C13.7146 16.8872 13.7203 16.8847 13.7262 16.8821C13.751 16.8711 13.7796 16.8585 13.7905 16.8373L23.7315 7.95969C23.5964 8.99563 23.1237 12.7722 22.9751 14.7392V14.7654C22.9616 14.9228 22.9481 15.1457 23.1102 15.1982L23.1372 15.2113L23.1642 15.1982C23.2858 15.1588 23.3263 14.9883 23.3668 14.7785C23.772 12.4444 24.4473 7.39583 24.4473 7.35649C24.4473 7.34337 24.4474 7.33026 24.4609 7.31715C24.4744 7.29092 24.4744 7.25158 24.4744 7.21224C24.4609 7.14668 24.4203 7.08111 24.3528 7.04177L11.6564 0.209814C11.6159 0.196701 11.5889 0.196701 11.5483 0.196701ZM11.5889 0.340946C11.5753 0.327833 11.5618 0.327833 11.5483 0.327833H11.4943C11.4876 0.327833 11.4842 0.331111 11.4808 0.334389C11.4774 0.337667 11.474 0.340946 11.4673 0.340946L0.351177 8.27441C0.324164 8.28752 0.310657 8.31375 0.310657 8.33997C0.337671 8.5629 1.09405 13.559 1.48575 15.7358C1.52627 15.9849 1.5803 16.1685 1.63433 16.2734C1.66134 16.1685 1.67485 15.9981 1.67485 15.8014C1.67485 15.6571 1.66134 15.3817 1.59381 14.9752L0.688848 8.90384L0.648328 8.61535L0.904957 8.77271L13.3718 16.6799C13.4123 16.7062 13.4393 16.7193 13.4663 16.7324C13.4875 16.7406 13.506 16.7488 13.5227 16.7563L13.5227 16.7563C13.5593 16.7725 13.5871 16.7849 13.6149 16.7849H13.6284H13.6419C13.6554 16.7849 13.6689 16.7849 13.6824 16.7717L23.6234 7.89413L23.8936 7.65809L23.8531 8.01215C23.718 9.10054 23.2587 12.8378 23.0967 14.7785V14.8048C23.0832 14.8966 23.0697 15.0539 23.1237 15.0933C23.1616 15.0564 23.1995 14.8702 23.2153 14.7928L23.2182 14.7785C23.6234 12.4313 24.2988 7.40894 24.2988 7.35649C24.3123 7.33026 24.3123 7.31715 24.3123 7.30403C24.3258 7.27781 24.3258 7.2647 24.3258 7.23847C24.3258 7.21224 24.3123 7.18602 24.2853 7.1729L11.5889 0.340946ZM11.5078 2.41283C11.5213 2.63575 11.5483 3.01603 11.6159 3.05537C11.6159 3.0536 11.6173 3.05086 11.6199 3.0462C11.6361 3.01637 11.6951 2.90754 11.6834 2.46528L11.6969 0.970378V0.747454L11.8995 0.852359L23.5559 7.21224L23.718 7.30403L23.5829 7.42205L13.6284 16.2997L13.5473 16.3652L13.4663 16.3128L0.918464 8.43177L0.756382 8.32686L0.918464 8.20884L11.2107 0.944151L11.4133 0.799906L11.4268 1.04906C11.4403 1.33755 11.4808 2.04566 11.4943 2.28169C11.4943 2.29995 11.4972 2.31821 11.5003 2.33778C11.5039 2.36037 11.5078 2.38472 11.5078 2.41283ZM11.6564 3.1865H11.6159C11.4268 3.1865 11.3998 2.89801 11.3727 2.46528C11.3727 2.43717 11.3689 2.40906 11.3653 2.38297C11.3621 2.36037 11.3592 2.33929 11.3592 2.32103C11.333 2.07922 11.3068 1.44215 11.2929 1.10513L11.2917 1.07528L0.999505 8.33997L13.5473 16.221L23.5019 7.34337L11.8455 0.983491L11.832 2.47839C11.832 3.13405 11.7104 3.17339 11.6564 3.1865Z" fill="#00E6B8"/>
</g>
<path d="M36.8196 6.04517C32.6865 6.04517 30.647 7.56629 29.9987 11.1068L29.1207 15.8276C28.8641 17.3094 29.1747 18.5027 30.0797 19.473C30.9576 20.4303 32.3894 20.9286 34.3343 20.9286C36.4549 20.9286 38.0487 20.5221 39.0482 19.7222C40.0477 18.9354 40.6961 17.6765 41.0472 15.8669L41.2228 14.9621H37.6435L37.4814 15.8014C37.2518 17.1389 36.3469 17.8208 34.8206 17.8208C34.0507 17.8208 33.4969 17.6241 33.1593 17.2438C32.8216 16.8504 32.727 16.2734 32.8621 15.4998L33.5645 11.5134C33.8346 9.99223 34.7936 9.17921 36.3334 9.17921C37.1168 9.17921 37.684 9.3628 38.0082 9.74308C38.3189 10.0971 38.4134 10.6217 38.3054 11.3035L38.1703 12.0379H41.7496L41.9252 11.0806C42.1818 9.59883 41.8847 8.37931 41.0202 7.46139C40.1693 6.50413 38.7781 6.04517 36.8196 6.04517Z" fill="url(#paint0_linear)"/>
<path fill-rule="evenodd" clip-rule="evenodd" d="M54.4325 20.7319H50.7857L51.515 16.6406H46.558L45.8151 20.7319H42.1548L43.8837 11.1068C44.532 7.65808 46.6931 6.04517 50.6641 6.04517C52.7712 6.04517 54.2974 6.51724 55.2294 7.46139C56.1479 8.39242 56.4585 9.57261 56.2019 11.0675L54.4325 20.7319ZM47.0983 13.6377H52.0553L52.474 11.4871C52.6226 10.6872 52.5145 10.0709 52.1634 9.6644C51.8122 9.25789 51.2179 9.04808 50.4075 9.04808C48.7596 9.04808 47.7871 9.84798 47.517 11.4347L47.0983 13.6377Z" fill="url(#paint1_linear)"/>
<path d="M56.9718 16.2734L56.8637 16.8504C56.6611 18.0306 57.0123 18.9879 57.9308 19.7615C58.8627 20.5483 60.3215 20.9548 62.2529 20.9548C64.4681 20.9548 66.1024 20.6008 67.1019 19.8927C68.1149 19.1977 68.7497 18.1486 69.0739 16.6668L69.1144 16.4832C69.5601 14.3327 68.2365 12.9034 65.1839 12.2346C65.1164 12.2215 65.0354 12.2084 64.9408 12.1821C64.7787 12.1559 64.6031 12.1166 64.4005 12.0772L64.1169 12.0117C63.6712 11.9199 63.4415 11.8674 63.0498 11.7494C62.415 11.5658 61.6992 11.2511 61.8477 10.3463L61.8748 10.2545C62.0638 9.25789 62.9418 8.77271 64.5356 8.77271C65.4541 8.77271 66.0619 8.95629 66.386 9.33657C66.6292 9.61195 66.7102 9.97912 66.6292 10.4381L66.6021 10.6217H70.1004L70.195 10.0971C70.4111 8.91695 70.0464 7.95969 69.1009 7.1729C68.1419 6.41234 66.7102 6.01894 64.8733 6.01894C60.9428 6.01894 58.6871 7.46139 58.2009 10.3201L58.1874 10.4381C57.9578 11.7756 58.3225 12.8509 59.2274 13.4803C60.0919 14.0835 60.9023 14.4114 62.1989 14.6736C62.2394 14.6867 62.2935 14.6999 62.361 14.713C62.442 14.7261 62.5501 14.7523 62.6717 14.7785C63.2254 14.8966 63.6441 14.9752 63.8738 15.0408C64.1034 15.1064 64.36 15.185 64.6842 15.3162C65.346 15.5784 65.5486 15.9063 65.4541 16.5619L65.4406 16.7193C65.2515 17.7159 64.3195 18.2142 62.6717 18.2142C61.6316 18.2142 60.9968 18.0437 60.6726 17.6634C60.443 17.3881 60.362 17.0078 60.4565 16.5095L60.4971 16.2734H56.9718V16.2734Z" fill="url(#paint2_linear)"/>
<path d="M70.4246 20.7319H74.0984L76.7188 6.24187H73.0719L70.4246 20.7319Z" fill="url(#paint3_linear)"/>
<path d="M85.3496 20.7319H89.118L91.7383 6.24187H88.2266L87.8349 8.70714C87.4702 11.1068 87.146 13.5852 86.8894 16.0767L86.8219 16.6537L83.0535 6.24187H79.3121L76.6647 20.7319H80.1765L80.4196 19.119C80.7978 16.6799 81.1355 13.9 81.3921 10.8708L81.4461 10.2807L85.3496 20.7319Z" fill="url(#paint4_linear)"/>
<path fill-rule="evenodd" clip-rule="evenodd" d="M93.035 11.0282C93.6563 7.63186 95.8309 6.04517 99.8694 6.04517C101.963 6.04517 103.516 6.53035 104.502 7.44827C105.448 8.39242 105.772 9.62506 105.502 11.0937L104.637 15.8538C104.003 19.3026 101.828 20.9155 97.7759 20.9155C95.6418 20.9155 94.0885 20.4434 93.1701 19.4862C92.2246 18.542 91.9004 17.2963 92.1706 15.7882L93.035 11.0282ZM96.1551 17.1651C96.5198 17.5847 97.1816 17.8077 98.1001 17.8077C99.7614 17.8077 100.734 17.0602 101.004 15.5915L101.747 11.4478C101.882 10.7528 101.774 10.202 101.45 9.82176C101.085 9.40214 100.423 9.17921 99.4913 9.17921C97.8434 9.17921 96.8844 9.92666 96.6278 11.4084L95.8579 15.5522C95.7229 16.2472 95.8309 16.7848 96.1551 17.1651Z" fill="url(#paint5_linear)"/>
<path d="M105.88 20.7319H109.554L110.445 15.7358H115.51L116.091 12.6149H111.026L111.593 9.3628H117.617L118.185 6.24187H108.527L105.88 20.7319Z" fill="url(#paint6_linear)"/>
<path fill-rule="evenodd" clip-rule="evenodd" d="M129.274 20.7319H125.613L126.356 16.6406H121.399L120.656 20.7319H116.996L118.725 11.1068C119.373 7.65808 121.534 6.04517 125.505 6.04517C127.612 6.04517 129.139 6.51724 130.071 7.46139C130.989 8.39242 131.3 9.57261 131.043 11.0675L129.274 20.7319ZM121.926 13.6377H126.883L127.302 11.4871C127.45 10.6872 127.342 10.0709 126.991 9.6644C126.64 9.25789 126.046 9.04808 125.235 9.04808C123.587 9.04808 122.615 9.84798 122.345 11.4347L121.926 13.6377Z" fill="url(#paint7_linear)"/>
<path d="M131.651 20.7319H135.325L137.945 6.24187H134.285L131.651 20.7319Z" fill="url(#paint8_linear)"/>
<path fill-rule="evenodd" clip-rule="evenodd" d="M150.209 20.7319H146.387L145.077 16.0374H142.429L141.579 20.7319H137.905L140.552 6.24187H146.725C148.548 6.24187 149.953 6.6746 150.885 7.52696C151.803 8.37931 152.154 9.45459 151.938 10.7135L151.79 11.5002C151.452 13.5459 150.588 14.6343 148.562 15.5129L148.453 15.5653L150.209 20.7319ZM142.902 13.3492H145.374C146.981 13.3492 147.9 12.6935 148.116 11.4478L148.156 11.2773C148.264 10.6479 148.183 10.1758 147.886 9.83487C147.549 9.44148 146.941 9.25789 146.049 9.25789H143.632L142.902 13.3492Z" fill="url(#paint9_linear)"/>
<defs>
<linearGradient id="paint0_linear" x1="20.2168" y1="-16.7357" x2="4.70747" y2="30.5769" gradientUnits="userSpaceOnUse">
<stop offset="0.2479" stop-color="#AA13EB"/>
<stop offset="1" stop-color="white"/>
</linearGradient>
<linearGradient id="paint1_linear" x1="31.4751" y1="-12.9273" x2="18.4996" y2="35.2685" gradientUnits="userSpaceOnUse">
<stop offset="0.2479" stop-color="#AA13EB"/>
<stop offset="1" stop-color="white"/>
</linearGradient>
<linearGradient id="paint2_linear" x1="46.0951" y1="-10.2768" x2="31.4398" y2="37.3679" gradientUnits="userSpaceOnUse">
<stop offset="0.2479" stop-color="#AA13EB"/>
<stop offset="1" stop-color="white"/>
</linearGradient>
<linearGradient id="paint3_linear" x1="66.772" y1="-15.2639" x2="35.785" y2="8.1861" gradientUnits="userSpaceOnUse">
<stop offset="0.2479" stop-color="#AA13EB"/>
<stop offset="1" stop-color="white"/>
</linearGradient>
<linearGradient id="paint4_linear" x1="62.136" y1="-4.80815" x2="50.9298" y2="43.8302" gradientUnits="userSpaceOnUse">
<stop offset="0.2479" stop-color="#AA13EB"/>
<stop offset="1" stop-color="white"/>
</linearGradient>
<linearGradient id="paint5_linear" x1="79.1101" y1="-2.4066" x2="64.7014" y2="45.3273" gradientUnits="userSpaceOnUse">
<stop offset="0.2479" stop-color="#AA13EB"/>
<stop offset="1" stop-color="white"/>
</linearGradient>
<linearGradient id="paint6_linear" x1="92.6881" y1="-0.0219809" x2="76.4391" y2="46.9733" gradientUnits="userSpaceOnUse">
<stop stop-color="#00E6B8"/>
<stop offset="1" stop-color="#4F83F0"/>
</linearGradient>
<linearGradient id="paint7_linear" x1="102.167" y1="3.68584" x2="89.1914" y2="51.8817" gradientUnits="userSpaceOnUse">
<stop stop-color="#00E6B8"/>
<stop offset="1" stop-color="#4F83F0"/>
</linearGradient>
<linearGradient id="paint8_linear" x1="124.609" y1="-1.67174" x2="93.622" y2="21.7782" gradientUnits="userSpaceOnUse">
<stop stop-color="#00E6B8"/>
<stop offset="1" stop-color="#4F83F0"/>
</linearGradient>
<linearGradient id="paint9_linear" x1="121.545" y1="8.36627" x2="108.826" y2="56.635" gradientUnits="userSpaceOnUse">
<stop stop-color="#00E6B8"/>
<stop offset="1" stop-color="#4F83F0"/>
</linearGradient>
</defs>
</svg>
