<?xml version="1.0" encoding="UTF-8"?>
<svg width="220px" height="31px" viewBox="0 0 220 31" version="1.1" xmlns="http://www.w3.org/2000/svg" xmlns:xlink="http://www.w3.org/1999/xlink">
    <title>CC-logo-tagline-white</title>
    <g id="Page-1" stroke="none" stroke-width="1" fill="none" fill-rule="evenodd">
        <g id="Desktop-CryptoCasino" transform="translate(-69.000000, -13.000000)" fill-rule="nonzero">
            <g id="CC-logo-tagline-white" transform="translate(69.000000, 13.000000)">
                <g id="logo_2_">
                    <g id="chip_inner_4_" transform="translate(4.088571, 0.000000)" fill="#F8B700">
                        <path d="M11.7257143,21.7618454 C8.29285714,21.7618454 5.51571429,18.9401496 5.51571429,15.5 C5.51571429,12.0598504 8.29285714,9.27680798 11.7257143,9.27680798 C13.5771429,9.27680798 15.2357143,10.0885287 16.3542857,11.3640898 L17.6657143,10.6683292 C16.2771429,8.92892768 14.1171429,7.80798005 11.7257143,7.80798005 C7.48285714,7.80798005 4.05,11.2481297 4.05,15.5 C4.05,19.7518703 7.48285714,23.19202 11.7257143,23.19202 C14.4642857,23.19202 16.8942857,21.723192 18.2442857,19.5586035 L16.9714286,18.8628429 C15.8528571,20.6022444 13.9242857,21.7618454 11.7257143,21.7618454 Z" id="small_c_4_"></path>
                        <path d="M11.6485714,24.6995012 C6.59571429,24.6995012 2.46857143,20.6022444 2.46857143,15.5 C2.46857143,10.436409 6.55714286,6.30049875 11.6485714,6.30049875 C14.7728571,6.30049875 17.55,7.88528678 19.2085714,10.2817955 L21.4457143,9.00623441 C19.3628571,5.91396509 15.66,3.78802993 11.6485714,3.78802993 C5.20714286,3.78802993 -1.37033242e-15,9.00623441 -1.37033242e-15,15.4613466 C-1.37033242e-15,21.9164589 5.20714286,27.1346633 11.6485714,27.1346633 C15.7757143,27.1346633 19.5557143,24.8154613 21.6385714,21.5299252 L19.44,20.2930175 C17.82,22.9600998 14.9271429,24.6995012 11.6485714,24.6995012 Z" id="big_c_4_"></path>
                        <g id="currency_strokes_4_" transform="translate(8.485714, 0.000000)">
                            <path d="M1.96714286,4.56109726 L1.96714286,0 C1.31142857,0.0386533666 0.655714286,0.1159601 -2.74066484e-15,0.2319202 L-2.74066484e-15,4.52244389 L1.96714286,4.52244389 L1.96714286,4.56109726 Z" id="Path"></path>
                            <path d="M5.82428571,4.56109726 L5.82428571,0.2319202 C5.16857143,0.1159601 4.51285714,0.0386533666 3.85714286,0 L3.85714286,4.56109726 L5.82428571,4.56109726 Z" id="Path"></path>
                            <path d="M0,26.361596 L0,30.7680798 C0.655714286,30.8840399 1.31142857,30.9613466 1.96714286,31 L1.96714286,26.361596 L0,26.361596 Z" id="Path"></path>
                            <path d="M3.85714286,26.361596 L3.85714286,31 C4.51285714,30.9613466 5.16857143,30.8840399 5.82428571,30.7680798 L5.82428571,26.361596 L3.85714286,26.361596 Z" id="Path"></path>
                        </g>
                    </g>
                    <g id="chip_4_" transform="translate(0.000000, 0.966334)" fill="#FDD990">
                        <path d="M10.1057143,2.89900249 C10.1057143,2.89900249 10.1442857,2.89900249 10.1442857,2.89900249 L9.48857143,0.309226933 C8.56285714,0.657107232 7.40571429,1.2755611 6.55714286,1.8553616 C5.70857143,2.43516209 4.74428571,3.28553616 4.08857143,4.05860349 L6.36428571,5.68204489 C6.36428571,5.68204489 6.40285714,5.64339152 6.40285714,5.64339152 C7.48285714,4.52244389 8.71714286,3.59476309 10.1057143,2.89900249 Z" id="Path"></path>
                        <path d="M6.48,23.5399002 C6.48,23.5399002 6.44142857,23.5012469 6.44142857,23.5012469 L4.20428571,25.0473815 C4.82142857,25.8204489 5.82428571,26.6708229 6.67285714,27.2892768 C7.52142857,27.8690773 8.64,28.4875312 9.56571429,28.8354115 L10.26,26.3229426 C10.26,26.3229426 10.2214286,26.3229426 10.2214286,26.3229426 C8.79428571,25.5885287 7.56,24.6608479 6.48,23.5399002 Z" id="Path"></path>
                        <path d="M3.08571429,12.2917706 L0.385714286,11.2481297 C0.115714286,12.2144638 -6.85166209e-16,13.5286783 -6.85166209e-16,14.5723192 C-6.85166209e-16,15.6159601 0.154285714,16.8915212 0.385714286,17.819202 L3.08571429,16.8528678 C2.97,16.1184539 2.89285714,15.3453865 2.89285714,14.5336658 C2.85428571,13.7605985 2.93142857,13.0261845 3.08571429,12.2917706 Z" id="Path"></path>
                        <path d="M24.7628571,5.10224439 C24.7628571,5.14089776 24.7628571,5.14089776 24.7628571,5.10224439 L26.7685714,3.67206983 C26.1128571,2.93765586 25.1485714,2.0872818 24.3,1.5074813 C23.4514286,0.927680798 22.2557143,0.309226933 21.33,1.7165543e-16 L20.7128571,2.55112219 C20.7514286,2.55112219 20.7514286,2.55112219 20.79,2.58977556 C22.2557143,3.20822943 23.6057143,4.05860349 24.7628571,5.10224439 Z" id="Path"></path>
                        <path d="M24.9557143,23.7331671 C24.9557143,23.7331671 24.9171429,23.7331671 24.9557143,23.7331671 C23.8371429,24.8154613 22.5257143,25.7044888 21.1371429,26.361596 C21.0985714,26.361596 21.0985714,26.361596 21.06,26.4002494 L21.7157143,28.8354115 C22.6028571,28.4875312 23.7214286,27.9077307 24.57,27.3279302 C25.38,26.7481297 26.3828571,25.8977556 27,25.1633416 L24.9557143,23.7331671 Z" id="Path"></path>
                    </g>
                </g>
                <g id="crypto_casino_2_" transform="translate(26.000000, 7.000000)" fill="#FFFFFF">
                    <path d="M8.31151151,17 C7.10750751,17 6.02002002,16.7644342 5.01021021,16.3325635 C4.0004004,15.9006928 3.10710711,15.3117783 2.36916917,14.5265589 C1.63123123,13.7806005 1.04864865,12.8775982 0.621421421,11.8568129 C0.194194194,10.8360277 -5.51933096e-15,9.73672055 -5.51933096e-15,8.55889145 L-5.51933096e-15,8.51963048 C-5.51933096e-15,7.34180139 0.194194194,6.24249423 0.621421421,5.22170901 C1.04864865,4.20092379 1.63123123,3.29792148 2.36916917,2.51270208 C3.10710711,1.72748268 4.0004004,1.13856813 5.04904905,0.66743649 C6.0976977,0.23556582 7.22402402,0 8.46686687,0 C9.2048048,0 9.9039039,0.07852194 10.5253253,0.19630485 C11.1467467,0.31408776 11.7293293,0.51039261 12.2342342,0.70669746 C12.7391391,0.942263279 13.2052052,1.1778291 13.6324324,1.49191686 C14.0596597,1.80600462 14.448048,2.15935335 14.8364364,2.51270208 L12.5837838,5.14318707 C11.9623624,4.55427252 11.3021021,4.12240185 10.6418418,3.76905312 C9.98158158,3.45496536 9.24364364,3.25866051 8.42802803,3.25866051 C7.76776777,3.25866051 7.10750751,3.37644342 6.52492492,3.65127021 C5.94234234,3.926097 5.43743744,4.27944573 5.04904905,4.75057737 C4.62182182,5.22170901 4.31111111,5.77136259 4.07807808,6.36027714 C3.84504505,6.98845266 3.72852853,7.61662818 3.72852853,8.32332564 L3.72852853,8.36258661 C3.72852853,9.06928406 3.84504505,9.73672055 4.07807808,10.3648961 C4.31111111,10.9930716 4.62182182,11.5427252 5.04904905,12.0138568 C5.47627628,12.4849885 5.94234234,12.8383372 6.52492492,13.113164 C7.10750751,13.3879908 7.72892893,13.5057737 8.42802803,13.5057737 C9.36016016,13.5057737 10.1369369,13.3487298 10.7583584,12.9953811 C11.3797798,12.6420323 12.04004,12.1709007 12.6614615,11.5819861 L14.9141141,13.8983834 C14.4868869,14.369515 14.0596597,14.7621247 13.6324324,15.1154734 C13.1663664,15.4688222 12.7003003,15.7829099 12.1565566,16.0577367 C11.6128128,16.3325635 11.0302302,16.5288684 10.4088088,16.6466513 C9.78738739,16.9214781 9.08828829,17 8.31151151,17 Z" id="Path"></path>
                    <path d="M17.2056056,0.31408776 L24.6238238,0.31408776 C26.6822823,0.31408776 28.2358358,0.863741339 29.3621622,1.9630485 C30.2942943,2.90531178 30.7603604,4.16166282 30.7603604,5.69284065 L30.7603604,5.73210162 C30.7603604,7.0669746 30.4496496,8.12702079 29.7893894,8.99076212 C29.167968,9.81524249 28.3135135,10.443418 27.2648649,10.8360277 L31.2264264,16.6859122 L27.0706707,16.6859122 L23.614014,11.4249423 L23.5751752,11.4249423 L20.8176176,11.4249423 L20.8176176,16.6859122 L17.2444444,16.6859122 L17.2444444,0.31408776 L17.2056056,0.31408776 Z M24.3907908,8.28406467 C25.2840841,8.28406467 25.9443443,8.08775982 26.4104104,7.65588915 C26.8764765,7.22401848 27.1095095,6.6743649 27.1095095,5.96766744 L27.1095095,5.92840647 C27.1095095,5.14318707 26.8764765,4.55427252 26.3715716,4.16166282 C25.8666667,3.76905312 25.2064064,3.57274827 24.3131131,3.57274827 L20.7787788,3.57274827 L20.7787788,8.28406467 L24.3907908,8.28406467 Z" id="Shape"></path>
                    <polygon id="Path" points="37.9455455 10.2471132 31.7313313 0.31408776 35.8870871 0.31408776 39.770971 6.87066975 43.6936937 0.31408776 47.7329329 0.31408776 41.5187187 10.1685912 41.5187187 16.6859122 37.9455455 16.6859122"></polygon>
                    <path d="M49.3641642,0.31408776 L55.9667668,0.31408776 C56.9377377,0.31408776 57.7921922,0.43187067 58.568969,0.70669746 C59.3457457,0.981524249 59.9671672,1.37413395 60.5109109,1.84526559 C61.0546547,2.3556582 61.443043,2.94457275 61.7537538,3.65127021 C62.0256256,4.35796767 62.180981,5.1039261 62.180981,5.96766744 L62.180981,6.00692841 C62.180981,6.94919169 62.0256256,7.81293303 61.6760761,8.51963048 C61.3265265,9.22632794 60.8604605,9.85450346 60.2778779,10.3256351 C59.6952953,10.7967667 58.9961962,11.1893764 58.1805806,11.4249423 C57.4038038,11.6605081 56.5493493,11.778291 55.6172172,11.778291 L52.8984985,11.778291 L52.8984985,16.6859122 L49.3253253,16.6859122 L49.3253253,0.31408776 L49.3641642,0.31408776 Z M55.7725726,8.59815242 C56.6658659,8.59815242 57.364965,8.36258661 57.8698699,7.89145497 C58.3747748,7.42032333 58.6078078,6.83140878 58.6078078,6.12471132 L58.6078078,6.08545035 C58.6078078,5.26096998 58.3359359,4.67205543 57.831031,4.24018476 C57.3261261,3.80831409 56.627027,3.61200924 55.6948949,3.61200924 L52.9373373,3.61200924 L52.9373373,8.63741339 L55.7725726,8.63741339 L55.7725726,8.59815242 Z" id="Shape"></path>
                    <polygon id="Path" points="68.0456456 3.65127021 63.1131131 3.65127021 63.1131131 0.31408776 76.5513514 0.31408776 76.5513514 3.65127021 71.6188188 3.65127021 71.6188188 16.7251732 68.0456456 16.7251732 68.0456456 3.65127021"></polygon>
                    <path d="M86.028028,17 C84.7851852,17 83.62002,16.7644342 82.5713714,16.3325635 C81.5227227,15.9006928 80.6294294,15.2725173 79.8526527,14.5265589 C79.0758759,13.7806005 78.4932933,12.8775982 78.0660661,11.8568129 C77.6388388,10.8360277 77.4446446,9.73672055 77.4446446,8.55889145 L77.4446446,8.51963048 C77.4446446,7.34180139 77.6776777,6.24249423 78.1049049,5.22170901 C78.5321321,4.20092379 79.1535536,3.29792148 79.8914915,2.51270208 C80.6682683,1.72748268 81.5615616,1.13856813 82.6102102,0.66743649 C83.6588589,0.23556582 84.824024,0 86.0668669,0 C87.3097097,0 88.4748749,0.23556582 89.5235235,0.66743649 C90.5721722,1.09930716 91.4654655,1.72748268 92.2422422,2.47344111 C93.019019,3.21939954 93.6016016,4.12240185 94.0288288,5.14318707 C94.4560561,6.16397229 94.6502503,7.26327945 94.6502503,8.44110855 L94.6502503,8.48036952 C94.6502503,9.65819861 94.4172172,10.7575058 93.98999,11.778291 C93.5627628,12.7990762 92.9413413,13.7020785 92.2034034,14.4872979 C91.4266266,15.2725173 90.5333333,15.8614319 89.4846847,16.2933025 C88.436036,16.7644342 87.3097097,17 86.028028,17 Z M86.1057057,13.6628176 C86.8048048,13.6628176 87.4650651,13.5450346 88.0864865,13.2702079 C88.7079079,12.9953811 89.2128128,12.6420323 89.64004,12.1709007 C90.0672673,11.6997691 90.377978,11.1501155 90.6498498,10.5612009 C90.8828829,9.9330254 90.9993994,9.30484988 90.9993994,8.59815242 L90.9993994,8.55889145 C90.9993994,7.852194 90.8828829,7.18475751 90.6498498,6.55658199 C90.4168168,5.92840647 90.0672673,5.37875289 89.64004,4.90762125 C89.2128128,4.43648961 88.6690691,4.08314088 88.0864865,3.80831409 C87.4650651,3.5334873 86.8436436,3.41570439 86.1057057,3.41570439 C85.3677678,3.41570439 84.7075075,3.5334873 84.1249249,3.80831409 C83.5423423,4.08314088 83.0374374,4.43648961 82.6102102,4.90762125 C82.182983,5.37875289 81.8722723,5.92840647 81.6004004,6.51732102 C81.3673674,7.14549654 81.2508509,7.77367206 81.2508509,8.48036952 L81.2508509,8.51963048 C81.2508509,9.22632794 81.3673674,9.89376443 81.6004004,10.52194 C81.8334334,11.1501155 82.182983,11.6997691 82.6102102,12.1709007 C83.0374374,12.6420323 83.5811812,12.9953811 84.1637638,13.2702079 C84.7075075,13.5450346 85.3677678,13.6628176 86.1057057,13.6628176 Z" id="Shape"></path>
                    <path d="M111.739339,17 C110.535335,17 109.447848,16.7644342 108.438038,16.3325635 C107.428228,15.9006928 106.534935,15.3117783 105.796997,14.5265589 C105.059059,13.7806005 104.476476,12.8775982 104.049249,11.8568129 C103.622022,10.8360277 103.427828,9.73672055 103.427828,8.55889145 L103.427828,8.51963048 C103.427828,7.34180139 103.622022,6.24249423 104.049249,5.22170901 C104.476476,4.20092379 105.059059,3.29792148 105.796997,2.51270208 C106.534935,1.72748268 107.428228,1.13856813 108.476877,0.66743649 C109.525526,0.23556582 110.651852,0 111.894695,0 C112.632633,0 113.331732,0.07852194 113.953153,0.19630485 C114.574575,0.31408776 115.157157,0.51039261 115.662062,0.70669746 C116.166967,0.942263279 116.633033,1.1778291 117.06026,1.49191686 C117.487487,1.80600462 117.875876,2.15935335 118.264264,2.51270208 L116.011612,5.14318707 C115.39019,4.55427252 114.72993,4.12240185 114.06967,3.76905312 C113.409409,3.45496536 112.671471,3.25866051 111.855856,3.25866051 C111.195596,3.25866051 110.535335,3.37644342 109.952753,3.65127021 C109.37017,3.926097 108.865265,4.27944573 108.476877,4.75057737 C108.04965,5.22170901 107.738939,5.77136259 107.505906,6.36027714 C107.272873,6.98845266 107.156356,7.61662818 107.156356,8.32332564 L107.156356,8.36258661 C107.156356,9.06928406 107.272873,9.73672055 107.505906,10.3648961 C107.738939,10.9930716 108.04965,11.5427252 108.476877,12.0138568 C108.904104,12.4849885 109.37017,12.8383372 109.952753,13.113164 C110.535335,13.3879908 111.156757,13.5057737 111.855856,13.5057737 C112.787988,13.5057737 113.564765,13.3487298 114.186186,12.9953811 C114.807608,12.6420323 115.467868,12.1709007 116.089289,11.5819861 L118.341942,13.8983834 C117.914715,14.369515 117.487487,14.7621247 117.06026,15.1154734 C116.594194,15.4688222 116.128128,15.7829099 115.584384,16.0577367 C115.040641,16.3325635 114.458058,16.5288684 113.836637,16.6466513 C113.215215,16.9214781 112.516116,17 111.739339,17 Z" id="Path"></path>
                    <path d="M126.187387,0.19630485 L129.488689,0.19630485 L136.440841,16.6859122 L132.712312,16.6859122 L131.236436,12.9953811 L124.400801,12.9953811 L122.924925,16.6859122 L119.274074,16.6859122 L126.187387,0.19630485 Z M129.954755,9.85450346 L127.818619,4.55427252 L125.682482,9.85450346 L129.954755,9.85450346 Z" id="Shape"></path>
                    <path d="M144.130931,16.9214781 C142.888088,16.9214781 141.684084,16.7251732 140.48008,16.2933025 C139.276076,15.8614319 138.227427,15.1939954 137.256456,14.330254 L139.353754,11.778291 C140.091692,12.4064665 140.868468,12.8775982 141.645245,13.2309469 C142.422022,13.5842956 143.276476,13.7806005 144.208609,13.7806005 C144.946547,13.7806005 145.529129,13.6628176 145.917518,13.3879908 C146.344745,13.113164 146.538939,12.7205543 146.538939,12.2494226 L146.538939,12.2101617 C146.538939,11.9745958 146.5001,11.778291 146.422422,11.5819861 C146.344745,11.3856813 146.189389,11.2286374 145.917518,11.0715935 C145.684484,10.9145497 145.334935,10.7575058 144.907708,10.6004619 C144.48048,10.443418 143.936737,10.2863741 143.237638,10.0900693 C142.422022,9.89376443 141.684084,9.65819861 141.023824,9.42263279 C140.363564,9.18706697 139.780981,8.87297921 139.314915,8.48036952 C138.848849,8.08775982 138.499299,7.65588915 138.227427,7.10623557 C137.955556,6.55658199 137.839039,5.8891455 137.839039,5.06466513 L137.839039,5.02540416 C137.839039,4.27944573 137.994394,3.61200924 138.266266,2.98383372 C138.538138,2.39491917 138.926527,1.84526559 139.431431,1.41339492 C139.936336,0.981524249 140.518919,0.62817552 141.218018,0.3926097 C141.917117,0.15704388 142.655055,0.03926097 143.50951,0.03926097 C144.713514,0.03926097 145.801001,0.23556582 146.771972,0.58891455 C147.781782,0.942263279 148.675075,1.45265589 149.52953,2.12009238 L147.665265,4.82909931 C146.927327,4.3187067 146.228228,3.926097 145.529129,3.65127021 C144.83003,3.37644342 144.130931,3.21939954 143.431832,3.21939954 C142.732733,3.21939954 142.227828,3.33718245 141.878278,3.61200924 C141.528729,3.88683603 141.373373,4.24018476 141.373373,4.63279446 L141.373373,4.67205543 C141.373373,4.94688222 141.412212,5.18244804 141.528729,5.37875289 C141.645245,5.57505774 141.800601,5.73210162 142.072472,5.8891455 C142.344344,6.04618938 142.693894,6.20323326 143.15996,6.32101617 C143.626026,6.47806005 144.208609,6.63510393 144.907708,6.83140878 C145.723323,7.0669746 146.461261,7.30254042 147.082683,7.57736721 C147.742943,7.852194 148.247848,8.16628176 148.713914,8.55889145 C149.141141,8.95150115 149.490691,9.38337182 149.723724,9.89376443 C149.956757,10.404157 150.073273,11.0323326 150.073273,11.73903 L150.073273,11.778291 C150.073273,12.6027714 149.917918,13.3094688 149.646046,13.9376443 C149.335335,14.5658199 148.946947,15.1154734 148.442042,15.5473441 C147.937137,15.9792148 147.315716,16.2933025 146.577778,16.5288684 C145.83984,16.8429561 145.024224,16.9214781 144.130931,16.9214781 Z" id="Path"></path>
                    <polygon id="Path" points="152.753153 0.31408776 156.326326 0.31408776 156.326326 16.6859122 152.753153 16.6859122"></polygon>
                    <polygon id="Path" points="159.782983 0.31408776 163.084284 0.31408776 170.657858 10.404157 170.657858 0.31408776 174.192192 0.31408776 174.192192 16.6859122 171.162763 16.6859122 163.317317 6.2817552 163.317317 16.6859122 159.782983 16.6859122"></polygon>
                    <path d="M185.377778,17 C184.134935,17 182.96977,16.7644342 181.921121,16.3325635 C180.872472,15.9006928 179.979179,15.2725173 179.202402,14.5265589 C178.425626,13.7806005 177.843043,12.8775982 177.415816,11.8568129 C176.988589,10.8360277 176.794394,9.73672055 176.794394,8.55889145 L176.794394,8.51963048 C176.794394,7.34180139 177.027427,6.24249423 177.454655,5.22170901 C177.881882,4.20092379 178.503303,3.29792148 179.241241,2.51270208 C180.018018,1.72748268 180.911311,1.13856813 181.95996,0.66743649 C183.008609,0.19630485 184.173774,0 185.416617,0 C186.659459,0 187.824625,0.23556582 188.873273,0.66743649 C189.921922,1.09930716 190.815215,1.72748268 191.591992,2.47344111 C192.368769,3.21939954 192.951351,4.12240185 193.378579,5.14318707 C193.805806,6.16397229 194,7.26327945 194,8.44110855 L194,8.48036952 C194,9.65819861 193.766967,10.7575058 193.33974,11.778291 C192.912513,12.7990762 192.291091,13.7020785 191.553153,14.4872979 C190.776376,15.2725173 189.883083,15.8614319 188.834434,16.2933025 C187.785786,16.7644342 186.620621,17 185.377778,17 Z M185.416617,13.6628176 C186.115716,13.6628176 186.775976,13.5450346 187.397397,13.2702079 C188.018819,12.9953811 188.523724,12.6420323 188.950951,12.1709007 C189.378178,11.6997691 189.688889,11.1501155 189.960761,10.5612009 C190.193794,9.9330254 190.31031,9.30484988 190.31031,8.59815242 L190.31031,8.55889145 C190.31031,7.852194 190.193794,7.18475751 189.960761,6.55658199 C189.727728,5.92840647 189.378178,5.37875289 188.950951,4.90762125 C188.523724,4.43648961 187.97998,4.08314088 187.397397,3.80831409 C186.775976,3.5334873 186.154555,3.41570439 185.416617,3.41570439 C184.678679,3.41570439 184.018418,3.5334873 183.435836,3.80831409 C182.853253,4.08314088 182.348348,4.43648961 181.921121,4.90762125 C181.493894,5.37875289 181.183183,5.92840647 180.911311,6.51732102 C180.678278,7.14549654 180.561762,7.77367206 180.561762,8.48036952 L180.561762,8.51963048 C180.561762,9.22632794 180.678278,9.89376443 180.911311,10.52194 C181.144344,11.1501155 181.493894,11.6997691 181.921121,12.1709007 C182.348348,12.6420323 182.892092,12.9953811 183.474675,13.2702079 C184.018418,13.5450346 184.678679,13.6628176 185.416617,13.6628176 Z" id="Shape"></path>
                </g>
            </g>
        </g>
    </g>
</svg>