<?xml version="1.0" encoding="UTF-8"?>
<svg width="46px" height="54px" viewBox="0 0 46 54" version="1.1" xmlns="http://www.w3.org/2000/svg" xmlns:xlink="http://www.w3.org/1999/xlink">
    <title>discord</title>
    <g id="Page-1" stroke="none" stroke-width="1" fill="none" fill-rule="evenodd">
        <g id="Mobile-CasinoFair" transform="translate(-36.000000, -1671.000000)" fill="#F40167" fill-rule="nonzero">
            <g id="Footer" transform="translate(0.000000, 1486.000000)">
                <g id="discord" transform="translate(36.000000, 185.000000)">
                    <path d="M40.3273972,0 L5.87058079,0 C2.96474094,0 0.598901099,2.4839509 0.598901099,5.56203451 L0.598901099,42.0660353 C0.598901099,45.1441189 2.96456516,47.6280698 5.87040501,47.6280698 L35.030405,47.6280698 L33.6673972,42.6330361 L36.9589011,45.8460408 L40.0702292,48.8700452 L45.5989011,54 L45.5989011,5.56203451 C45.5989011,2.4839509 43.233237,0 40.3273972,0 Z M30.4017331,35.2622099 C30.4017331,35.2622099 29.4760691,34.1010763 28.7045652,33.0750484 C32.073237,32.0759679 33.3589011,29.8620437 33.3589011,29.8620437 C32.3045652,30.5910975 31.3017331,31.1042038 30.4017331,31.4548879 C29.1160691,32.0220733 27.8817331,32.3998893 26.673237,32.6160214 C24.2045652,33.1019958 21.9417331,32.9670747 20.013237,32.5890741 C18.5473972,32.2919155 17.2873972,31.8600203 16.233237,31.4281251 C15.6417331,31.1850457 14.9989011,30.8880716 14.3558933,30.5100711 C14.2789011,30.4559919 14.2017331,30.4290446 14.1245652,30.3749654 C14.073237,30.3480181 14.0473972,30.3210708 14.0217331,30.2941235 C13.5589011,30.0240967 13.3017331,29.8350964 13.3017331,29.8350964 C13.3017331,29.8350964 14.5360691,31.995126 17.8017331,33.0209693 C17.030405,34.0471817 16.0789011,35.2622099 16.0789011,35.2622099 C10.3958933,35.073025 8.23606907,31.1580984 8.23606907,31.1580984 C8.23606907,22.4640856 11.9389011,15.4169962 11.9389011,15.4169962 C15.6417331,12.5009656 19.1645652,12.5817675 19.1645652,12.5817675 L19.4217331,12.906098 C14.793237,14.3097573 12.6589011,16.4430241 12.6589011,16.4430241 C12.6589011,16.4430241 13.2245652,16.1191027 14.1758933,15.6600757 C16.9273972,14.3909683 19.113237,14.0400997 20.013237,13.9590732 C20.1673972,13.9319413 20.2960691,13.904994 20.450405,13.904994 C22.1735878,13.6692893 23.9174586,13.6511955 25.6447409,13.8510994 C28.0873972,14.1480735 30.710405,14.9040746 33.3845652,16.4430241 C33.3845652,16.4430241 31.353237,14.4181002 26.9817331,13.0140718 L27.3417331,12.5821766 C27.3417331,12.5821766 30.8645652,12.5009656 34.5673972,15.4171808 C34.5673972,15.4171808 38.270405,22.4640856 38.270405,31.1580984 C38.270405,31.1580984 36.0845652,35.073025 30.4017331,35.2622099 L30.4017331,35.2622099 Z M18.4445652,22.6530859 C16.9789011,22.6530859 15.8219089,24.0030352 15.8219089,25.6499585 C15.8219089,27.2970664 17.0045652,28.6470156 18.4445652,28.6470156 C19.910405,28.6470156 21.0673972,27.2970664 21.0673972,25.6499585 C21.093237,24.0030352 19.910405,22.6530859 18.4447409,22.6530859 M27.830405,22.6530859 C26.3645652,22.6530859 25.2073972,24.0030352 25.2073972,25.6499585 C25.2073972,27.2970664 26.390405,28.6470156 27.830405,28.6470156 C29.2960691,28.6470156 30.4530613,27.2970664 30.4530613,25.6499585 C30.4530613,24.0030352 29.2960691,22.6530859 27.830405,22.6530859" id="Shape"></path>
                </g>
            </g>
        </g>
    </g>
</svg>