<?xml version="1.0" encoding="UTF-8"?>
<svg width="157px" height="31px" viewBox="0 0 157 31" version="1.1" xmlns="http://www.w3.org/2000/svg" xmlns:xlink="http://www.w3.org/1999/xlink">
    <title>Funfair-Technologies-RGB Copy</title>
    <defs>
        <filter id="filter-1">
            <feColorMatrix in="SourceGraphic" type="matrix" values="0 0 0 0 0.653250 0 0 0 0 0.653250 0 0 0 0 0.653250 0 0 0 1.000000 0"></feColorMatrix>
        </filter>
    </defs>
    <g id="Page-1" stroke="none" stroke-width="1" fill="none" fill-rule="evenodd">
        <g id="Desktop-CasinoFair" transform="translate(-815.000000, -12.000000)">
            <g id="Funfair-Technologies-RGB-Copy" transform="translate(0.000000, -1.000000)" filter="url(#filter-1)">
                <g transform="translate(815.000000, 13.000000)">
                    <g id="Group" transform="translate(0.000000, 0.000000)" fill="#FF0066" fill-rule="nonzero">
                        <path d="M71.4055617,0 L58.2711494,0 C55.8631739,0 53.5177431,1.96875 53.0173845,4.375 L50.0465056,19.375 C49.9839607,19.71875 50.2028676,20 50.5468641,20 L53.6741051,20 C54.0181017,20 54.3620982,19.71875 54.424643,19.375 L57.2078875,5.3125 C57.3017047,4.78125 57.8020633,4.375 58.3336943,4.375 L69.5917619,4.375 C70.1233929,4.375 70.436117,4.78125 70.3422998,5.3125 L67.5590553,19.375 C67.4965105,19.71875 67.7154173,20 68.0594138,20 L71.1866549,20 C71.5306514,20 71.8746479,19.71875 71.9371927,19.375 L74.9080717,4.375 C75.4084302,1.96875 73.8135373,0 71.4055617,0 Z" id="Path"></path>
                        <path d="M7.17203116,5.3125 C7.26584839,4.78125 7.76620695,4.375 8.29783792,4.375 L24.2467671,4.375 C24.5907636,4.375 24.9347602,4.09375 24.997305,3.75 L25.6227532,0.625 C25.685298,0.28125 25.4663911,0 25.1223946,0 L8.2352931,0 C5.82731752,0 3.48188675,1.96875 2.98152819,4.375 L0.0106492161,19.375 C-0.0518956043,19.71875 0.167011267,20 0.51100778,20 L3.6382488,20 C3.98224531,20 4.32624183,19.71875 4.38878665,19.375 L5.63968305,13.125 L22.5267846,13.125 C22.8707811,13.125 23.2147776,12.84375 23.2773224,12.5 L23.9027706,9.375 C23.9653154,9.03125 23.7464086,8.75 23.4024121,8.75 L6.51531054,8.75 L7.17203116,5.3125 Z" id="Path"></path>
                        <path d="M29.2816252,20 L42.4160375,20 C44.8240131,20 47.1694438,18.03125 47.6698024,15.625 L50.6406814,0.625 C50.7032262,0.28125 50.4843193,0 50.1403228,0 L47.0130818,0 C46.6690853,0 46.3250887,0.28125 46.2625439,0.625 L43.4792994,14.6875 C43.3854822,15.21875 42.8851236,15.625 42.3534926,15.625 L31.095425,15.625 C30.563794,15.625 30.2510699,15.21875 30.3448871,14.6875 L33.1281316,0.625 C33.1906765,0.28125 32.9717696,0 32.6277731,0 L29.500532,0 C29.1565355,0 28.812539,0.28125 28.7499942,0.625 L25.7791152,15.625 C25.3100291,18.03125 26.8736496,20 29.2816252,20 Z" id="Path"></path>
                    </g>
                    <g id="Group" transform="translate(75.000000, 0.000000)" fill="#003366" fill-rule="nonzero">
                        <path d="M7.1280996,5.3125 C7.22134216,4.78125 7.71863582,4.375 8.24701035,4.375 L24.098246,4.375 C24.4401354,4.375 24.7820248,4.09375 24.8441865,3.75 L25.4658036,0.625 C25.5279653,0.28125 25.3103993,0 24.9685099,0 L8.18484864,0 C5.79162287,0 3.4605588,1.96875 2.96326513,4.375 L0.0105839854,19.375 C-0.051577723,19.71875 0.165988256,20 0.507877652,20 L3.61596307,20 C3.95785247,20 4.29974186,19.71875 4.36190357,19.375 L5.60513774,13.125 L22.388799,13.125 C22.7306884,13.125 23.0725778,12.84375 23.1347395,12.5 L23.7563566,9.375 C23.8185183,9.03125 23.6009523,8.75 23.2590629,8.75 L6.47540166,8.75 L7.1280996,5.3125 Z" id="Path"></path>
                        <path d="M46.1034908,0 L33.049532,0 C30.6563062,0 28.3252422,1.96875 27.8279485,4.375 L24.8131056,19.6875 C24.7820248,19.875 24.8752673,20 25.0617525,20 L28.791455,20 C28.9779401,20 29.1333444,19.875 29.1644252,19.6875 L30.4698211,13.125 L43.5237799,13.125 L42.218384,19.6875 C42.1873031,19.875 42.2805457,20 42.4670308,20 L46.1967333,20 C46.3832184,20 46.5386227,19.875 46.5697036,19.6875 L49.5845464,4.375 C50.0818401,1.96875 48.4967165,0 46.1034908,0 Z M31.340085,8.75 L32.0238638,5.3125 C32.1171064,4.78125 32.6144,4.375 33.1427746,4.375 L44.3318821,4.375 C44.8602566,4.375 45.1710651,4.78125 45.0778226,5.3125 L44.3940438,8.75 L31.340085,8.75 Z" id="Shape"></path>
                        <path d="M50.2372444,20 L53.3453298,20 C53.6872192,20 54.0291086,19.71875 54.0912703,19.375 L57.7898919,0.625 C57.8520536,0.28125 57.6344877,0 57.2925983,0 L54.1845128,0 C53.8426234,0 53.500734,0.28125 53.4385723,0.625 L49.7399507,19.375 C49.677789,19.71875 49.895355,20 50.2372444,20 Z" id="Path"></path>
                        <path d="M78.4275791,0 L61.6439178,0 C61.3020285,0 60.9601391,0.28125 60.8979773,0.625 L57.1993557,19.375 C57.137194,19.71875 57.35476,20 57.6966494,20 L60.8047348,20 C61.1466242,20 61.4885136,19.71875 61.5506753,19.375 L62.7939095,13.125 L70.0979102,13.125 L73.3924807,19.71875 C73.4857233,19.875 73.6411276,20 73.8586935,20 L78.241094,20 C78.4897408,20 78.7073068,19.71875 78.5829834,19.5 L75.3816554,13.125 L75.8167874,13.125 C78.2100131,13.125 80.5410772,11.15625 81.0383709,8.75 L81.9086348,4.375 C82.4059284,1.96875 80.8208049,0 78.4275791,0 Z M76.9046173,7.8125 C76.8113747,8.34375 76.314081,8.75 75.7857065,8.75 L63.6641734,8.75 L64.5344373,4.375 L76.6559704,4.375 C77.0911024,4.375 77.4329918,4.6875 77.4329918,5.125 C77.4019109,5.1875 76.9046173,7.8125 76.9046173,7.8125 Z" id="Shape"></path>
                    </g>
                    <g id="Group" transform="translate(74.000000, 25.000000)" fill="#003366" fill-rule="nonzero">
                        <polygon id="Path" points="1.64907444 1.06403941 -1.76866093e-14 1.06403941 0.186687672 0.118226601 4.54273336 0.118226601 4.35604569 1.06403941 2.70697125 1.06403941 1.71130366 5.85221675 0.684521465 5.85221675"></polygon>
                        <polygon id="Path" points="7.31193383 2.45320197 9.73887357 2.45320197 9.5521859 3.39901478 7.12524616 3.39901478 6.81410004 4.93596059 9.48995668 4.93596059 9.303269 5.8817734 5.60063017 5.8817734 6.78298543 0.147783251 10.423395 0.147783251 10.2367074 1.09359606 7.59196534 1.09359606"></polygon>
                        <path d="M16.3662859,4.34482759 L16.9574636,5.05418719 C16.9574636,5.05418719 15.9929106,5.9408867 14.5927531,5.9408867 C12.7881056,5.9408867 11.8857818,4.69950739 11.9168964,3.31034483 C11.948011,1.47783251 13.6593147,0.0295566502 15.4950768,0.0295566502 C17.0196928,0.0295566502 17.7042143,0.916256158 17.7042143,0.916256158 L17.0196928,1.56650246 C17.0196928,1.56650246 16.4596298,0.945812808 15.4639622,0.945812808 C14.0638046,0.945812808 13.0059078,2.03940887 12.9747932,3.31034483 C12.9436786,4.22660099 13.472627,5.02463054 14.5927531,5.02463054 C15.6817645,5.05418719 16.3662859,4.34482759 16.3662859,4.34482759 Z" id="Path"></path>
                        <polygon id="Path" points="23.8337928 0.147783251 24.860575 0.147783251 23.6782198 5.8817734 22.6514376 5.8817734 23.180386 3.42857143 20.5978732 3.42857143 20.0689248 5.8817734 19.0421426 5.8817734 20.2244978 0.147783251 21.25128 0.147783251 20.7534462 2.48275862 23.335959 2.48275862"></polygon>
                        <polygon id="Path" points="28.5320993 0.147783251 30.7101221 4.16748768 31.5502166 0.147783251 32.5769988 0.147783251 31.3946436 5.8817734 30.4612052 5.8817734 28.2831824 1.89162562 27.4430878 5.8817734 26.4163056 5.8817734 27.5986609 0.147783251"></polygon>
                        <path d="M40.5423395,2.63054187 C40.5112249,4.40394089 38.8932651,5.97044335 36.9952737,5.97044335 C35.2217408,5.97044335 34.2883025,4.81773399 34.3194171,3.36945813 C34.3505317,1.59605911 35.9996061,0.0295566502 37.8664829,0.0295566502 C39.6400158,0.0295566502 40.5734541,1.18226601 40.5423395,2.63054187 Z M39.4844427,2.63054187 C39.5155573,1.71428571 38.9243797,0.975369458 37.8664829,0.975369458 C36.4040961,0.975369458 35.4084285,2.18719212 35.3773139,3.36945813 C35.3461993,4.28571429 35.9373769,5.02463054 36.9952737,5.02463054 C38.4576605,5.02463054 39.4533281,3.81280788 39.4844427,2.63054187 Z" id="Shape"></path>
                        <polygon id="Path" points="43.467113 0.147783251 44.4938952 0.147783251 43.4982276 4.93596059 46.0807404 4.93596059 45.8940528 5.8817734 42.2847578 5.8817734"></polygon>
                        <path d="M54.4816857,2.63054187 C54.4505711,4.40394089 52.8326113,5.97044335 50.9346199,5.97044335 C49.161087,5.97044335 48.2276487,4.81773399 48.2587633,3.36945813 C48.2898779,1.59605911 49.9389523,0.0295566502 51.8058291,0.0295566502 C53.579362,0.0295566502 54.5128003,1.18226601 54.4816857,2.63054187 Z M53.4237889,2.63054187 C53.4549035,1.71428571 52.8637259,0.975369458 51.8058291,0.975369458 C50.3434423,0.975369458 49.3477747,2.18719212 49.3166601,3.36945813 C49.2855455,4.28571429 49.8767231,5.02463054 50.9346199,5.02463054 C52.3658921,5.02463054 53.3926743,3.81280788 53.4237889,2.63054187 Z" id="Shape"></path>
                        <path d="M60.4556912,4.81773399 L60.7046081,3.57635468 L59.3355652,3.57635468 L59.5222529,2.66009852 L61.918078,2.66009852 L61.3269004,5.43842365 C61.3269004,5.43842365 60.393462,6 59.1488775,6 C57.3131154,6 56.3174478,4.84729064 56.379677,3.39901478 C56.4107917,1.50738916 58.0909807,0.0591133005 60.0200866,0.0591133005 C61.6380465,0.0591133005 62.2603387,0.916256158 62.2603387,0.916256158 L61.5447026,1.56650246 C61.5447026,1.56650246 61.0468688,0.975369458 60.0200866,0.975369458 C58.5576999,0.975369458 57.4998031,2.12807882 57.4686885,3.39901478 C57.4375738,4.34482759 58.0909807,5.08374384 59.2111067,5.08374384 C60.0823159,5.05418719 60.4556912,4.81773399 60.4556912,4.81773399 Z" id="Path"></path>
                        <polygon id="Path" points="65.1539976 0.147783251 66.1807798 0.147783251 64.9984246 5.8817734 63.9716424 5.8817734"></polygon>
                        <polygon id="Path" points="69.5722725 2.45320197 71.9992123 2.45320197 71.8125246 3.39901478 69.3855849 3.39901478 69.0744388 4.93596059 71.7502954 4.93596059 71.5636077 5.8817734 67.8609689 5.8817734 69.0433241 0.147783251 72.6837338 0.147783251 72.4970461 1.09359606 69.8834187 1.09359606"></polygon>
                        <path d="M77.3509256,4.22660099 C77.3509256,3.81280788 77.0086648,3.66502463 76.4174872,3.45812808 C75.6707365,3.19211823 74.830642,2.77832512 74.8617566,1.77339901 C74.8928712,0.916256158 75.7640803,0 77.0397794,0 C78.4088224,0 79,0.916256158 79,0.916256158 L78.2532493,1.56650246 C78.2532493,1.56650246 77.7554155,0.945812808 77.0086648,0.945812808 C76.4174872,0.945812808 75.9196534,1.30049261 75.9196534,1.74384236 C75.9196534,2.18719212 76.3863726,2.27586207 77.0708941,2.54187192 C77.8176447,2.83743842 78.439937,3.19211823 78.4088224,4.13793103 C78.3777078,5.29064039 77.2575817,5.91133005 76.1063411,5.91133005 C74.6439543,5.91133005 73.9594328,4.78817734 73.9594328,4.78817734 L74.7372981,4.10837438 C74.7372981,4.10837438 75.2351319,4.96551724 76.1063411,4.96551724 C76.6664041,5.02463054 77.3509256,4.81773399 77.3509256,4.22660099 Z" id="Path"></path>
                    </g>
                </g>
            </g>
        </g>
    </g>
</svg>