<?xml version="1.0" encoding="UTF-8"?>
<svg width="208px" height="177px" viewBox="0 0 208 177" version="1.1" xmlns="http://www.w3.org/2000/svg" xmlns:xlink="http://www.w3.org/1999/xlink">
    <title>Icon-FunWallet-RGB-45x45px</title>
    <defs>
        <linearGradient x1="49.83242%" y1="2.66475283%" x2="50.2094034%" y2="99.6835108%" id="linearGradient-1">
            <stop stop-color="#D5DBE0" offset="0%"></stop>
            <stop stop-color="#F8FCFD" offset="35.66%"></stop>
            <stop stop-color="#D8DFE7" offset="36.59%"></stop>
            <stop stop-color="#F1F9FF" offset="100%"></stop>
        </linearGradient>
        <linearGradient x1="49.7123134%" y1="-12.6301727%" x2="50.1005313%" y2="100.170372%" id="linearGradient-2">
            <stop stop-color="#D5DBE0" offset="0%"></stop>
            <stop stop-color="#F8FCFD" offset="35.66%"></stop>
            <stop stop-color="#D8DFE7" offset="36.59%"></stop>
            <stop stop-color="#F1F9FF" offset="100%"></stop>
        </linearGradient>
        <linearGradient x1="49.2276274%" y1="22.8736734%" x2="55.3092995%" y2="98.9931774%" id="linearGradient-3">
            <stop stop-color="#D5DBE0" offset="0%"></stop>
            <stop stop-color="#F8FCFD" offset="35.66%"></stop>
            <stop stop-color="#D8DFE7" offset="36.59%"></stop>
            <stop stop-color="#F1F9FF" offset="100%"></stop>
        </linearGradient>
    </defs>
    <g id="Page-1" stroke="none" stroke-width="1" fill="none" fill-rule="evenodd">
        <g id="Desktop-KingTiger" transform="translate(-136.000000, -642.000000)">
            <g id="Section-2" transform="translate(-0.000000, 595.000000)">
                <g id="Icon-FunWallet-RGB-45x45px" transform="translate(136.000000, 47.000000)">
                    <path d="M166.331951,22 L170.187444,22 C175.144507,22 179,28.0795698 179,35.264516 C179,36.3698923 179,36.9225805 179,38.0279568 L157.519395,152.434407 C156.417825,158.513977 152.562332,162.935482 148.156054,161.830106 C147.605269,161.830106 144.851345,160.72473 139.894282,158.513977 C137.691143,156.855913 136.589574,152.987095 137.140359,149.670966 L158.070179,33.0537633 C158.620964,26.4215053 162.476457,22 166.331951,22 Z" id="w2-2" fill="url(#linearGradient-1)"></path>
                    <path d="M198.690362,40 L201.428491,40 C204.714245,40 208,44.4402489 208,49.99056 C208,50.5455912 208,51.1006223 208,51.6556534 L190.475975,141.570694 C189.92835,146.565974 186.642595,149.89616 183.35684,148.786098 C182.809214,148.786098 181.166337,147.676036 177.332957,146.010943 C175.690079,144.90088 174.594828,142.125725 175.142454,139.350569 L192.666478,47.7704356 C193.214104,43.3301867 195.404607,40 198.690362,40 Z" id="w3" fill="url(#linearGradient-2)"></path>
                    <path d="M121.825645,0 C134.02154,0 144,10.5120685 144,23.7904708 C144,25.4502711 144,26.5568046 143.445641,28.2166049 L137.902052,60.8593439 C122.380004,59.7528104 111.847185,61.9658774 105.749237,66.3920115 C96.3251364,73.5844795 94.6620597,85.7563482 99.0969308,96.8216835 C102.423084,104.567418 111.847185,110.653353 128.477951,116.18602 L128.477951,116.18602 L121.271286,157.681027 C119.05385,170.406163 107.412314,179.258431 95.2164186,176.492097 C91.8902653,175.938831 89.1184709,174.27903 86.3466765,172.61923 L9.29079229,113.419686 C2.08412685,107.887019 -1.24202642,98.4814838 0.421050215,89.6292156 L14.2800222,19.3643367 C16.4974577,8.29900144 25.3671998,0.553266763 35.9000185,0.553266763 L121.825645,0.553266763 L121.825645,0 Z M120.716927,69.1583454 C130.141028,69.1583454 137.347693,76.3508133 137.347693,85.7563482 C137.347693,95.1618832 130.141028,102.354351 120.716927,102.354351 C111.292826,102.354351 104.086161,95.1618832 104.086161,85.7563482 C104.086161,76.3508133 111.292826,69.1583454 120.716927,69.1583454 Z" id="ff-w-notch" fill="url(#linearGradient-3)"></path>
                </g>
            </g>
        </g>
    </g>
</svg>