<?xml version="1.0" encoding="UTF-8"?>
<svg width="60px" height="48px" viewBox="0 0 60 48" version="1.1" xmlns="http://www.w3.org/2000/svg" xmlns:xlink="http://www.w3.org/1999/xlink">
    <title>twitter-seeklogo.com</title>
    <g id="Page-1" stroke="none" stroke-width="1" fill="none" fill-rule="evenodd">
        <g id="Mobile-CasinoFair" transform="translate(-121.000000, -1673.000000)" fill="#F40167" fill-rule="nonzero">
            <g id="Footer" transform="translate(0.000000, 1486.000000)">
                <g id="twitter-seeklogo.com" transform="translate(122.637363, 187.373626)">
                    <path d="M56.9615385,5.19014232 C54.8275103,6.13383161 52.5341563,6.77163104 50.1270894,7.05848212 C52.5840118,5.58995687 54.4706718,3.26468616 55.3591609,0.494119308 C53.060079,1.85370036 50.5134168,2.84117887 47.8029737,3.3734188 C45.6322433,1.06739839 42.5397161,-0.373626374 39.117294,-0.373626374 C32.545488,-0.373626374 27.2175244,4.9388303 27.2175244,11.4913467 C27.2175244,12.4212858 27.3229634,13.3268975 27.5257799,14.1952778 C17.6361425,13.7004809 8.86814808,8.97674585 2.99919895,1.79827633 C1.97493324,3.55069106 1.3881232,5.58889917 1.3881232,7.76334039 C1.3881232,11.8797381 3.48905593,15.5114928 6.68193058,17.6391832 C4.73120086,17.5776244 2.89651778,17.0439037 1.29201872,16.1552154 C1.29117013,16.2047162 1.29117013,16.2544286 1.29117013,16.3043525 C1.29117013,22.0532205 5.39290025,26.84888 10.8364863,27.9387447 C9.83789093,28.2099418 8.78668202,28.3548481 7.70131681,28.3548481 C6.93460258,28.3548481 6.18910347,28.2805967 5.46269797,28.1420367 C6.97682066,32.8560409 11.3713193,36.2864075 16.5783569,36.382236 C12.5059037,39.5644637 7.37502834,41.4613619 1.8001207,41.4613619 C0.839712498,41.4613619 -0.10754234,41.4053032 -1.03846154,41.2957243 C4.22755405,44.6622052 10.4824061,46.6263736 17.2022934,46.6263736 C39.0895021,46.6263736 51.0582208,28.5465052 51.0582208,12.8672165 C51.0582208,12.3527462 51.0467646,11.8410259 51.0238524,11.3322671 C53.3486045,9.65939219 55.3661619,7.56956782 56.9615385,5.19014232" id="Path"></path>
                </g>
            </g>
        </g>
    </g>
</svg>